<svg width="24" height="24" viewBox="0 0 24 24" fill="none" xmlns="http://www.w3.org/2000/svg">
<g clip-path="url(#clip0_8322_11287)">
<path d="M12.7365 3.79695C13.1942 3.22708 13.4539 2.51091 13.4539 1.75949V0H6.84375V1.75949C6.84375 2.51091 7.10335 3.22708 7.56109 3.79695H12.7365Z" fill="#E67225"/>
<path d="M12.6979 19.9534C12.6979 16.9468 15.144 14.5006 18.1506 14.5006C18.1962 14.5006 18.2416 14.5012 18.2869 14.5024C17.2841 10.9516 15.1176 7.40067 12.7727 5.20312H7.53338C5.15785 7.43109 2.96247 11.0467 1.97746 14.6452C1.1014 17.8459 3.52381 21.0003 6.8422 21.0003H12.7991C12.733 20.6614 12.6979 20.3115 12.6979 19.9534ZM10.9771 17.1545H9.5708V16.2111C8.56076 16.0645 7.78234 15.1931 7.78234 14.1431H9.18862C9.18862 14.5201 9.49533 14.8268 9.8724 14.8268H10.6617C11.0525 14.8268 11.3706 14.5089 11.3706 14.1181C11.3706 13.7273 11.0526 13.4093 10.6617 13.4093H9.88618C8.71995 13.4093 7.77114 12.4605 7.77114 11.2942C7.77114 10.2351 8.55364 9.35549 9.57085 9.20277V8.25779H10.9771V9.20563C11.9861 9.36589 12.7599 10.2417 12.7599 11.2951H11.3536C11.3536 10.9038 11.0353 10.5854 10.644 10.5854H9.88618C9.49538 10.5854 9.17742 10.9034 9.17742 11.2942C9.17742 11.685 9.49538 12.003 9.88618 12.003H10.6617C11.828 12.003 12.7768 12.9518 12.7768 14.118C12.7768 15.1771 11.9943 16.0568 10.9771 16.2095V17.1545H10.9771Z" fill="#E67225"/>
<path d="M14.1016 19.9537C14.1016 22.185 15.9168 24.0002 18.148 24.0002C20.3793 24.0002 22.1945 22.1849 22.1945 19.9537C22.1945 17.7225 20.3793 15.9072 18.148 15.9072C15.9168 15.9072 14.1016 17.7225 14.1016 19.9537ZM20.4945 18.6017L19.1424 19.9538L20.4945 21.3058L19.5001 22.3002L18.148 20.9482L16.796 22.3002L15.8016 21.3058L17.1537 19.9538L15.8016 18.6017L16.796 17.6074L18.148 18.9594L19.5001 17.6074L20.4945 18.6017Z" fill="#E67225"/>
</g>
<defs>
<clipPath id="clip0_8322_11287">
<rect width="24" height="24" fill="white"/>
</clipPath>
</defs>
</svg>
