<svg width="24" height="24" viewBox="0 0 24 24" fill="none" xmlns="http://www.w3.org/2000/svg">
<path d="M21.7222 17.269L13.6192 21.9471C12.9635 22.3256 12.2701 22.391 11.5323 22.2218L8.29212 21.479C7.40965 21.2767 6.68379 21.4116 5.99093 21.8131L4.38204 15.8086L5.70354 14.7966C6.30481 14.3361 6.98646 14.1542 7.73726 14.2537L13.3941 15.7933C14.2841 16.0356 14.8157 16.9648 14.5734 17.8547C14.3862 18.5422 13.6642 18.9586 12.9721 18.7703L9.95032 17.9479C9.7505 17.8937 9.54457 18.0117 9.49039 18.2115C9.4362 18.4114 9.55423 18.6173 9.75406 18.6715L12.7758 19.494C13.8355 19.7824 15.0492 19.1315 15.3007 18.0373C15.3543 17.8352 15.3753 17.6317 15.3671 17.4323L20.2042 14.6397C20.9272 14.2222 21.8604 14.4723 22.2778 15.1954C22.6951 15.9185 22.4452 16.8516 21.7222 17.269ZM3.52662 15.514C3.479 15.3363 3.29473 15.23 3.11717 15.2775L1.7712 15.6382C1.59359 15.6858 1.48718 15.87 1.53481 16.0477L3.48617 23.3303C3.53379 23.508 3.71796 23.6144 3.89562 23.5667L5.24159 23.2061C5.41915 23.1585 5.52556 22.9743 5.47793 22.7966L3.52662 15.514ZM6.47745 5.41116C6.47745 3.69492 7.86865 2.30372 9.58484 2.30372C11.3011 2.30372 12.6923 3.69488 12.6923 5.41116C12.6923 7.12739 11.3011 8.51859 9.58484 8.51859C7.8686 8.51855 6.47745 7.12734 6.47745 5.41116ZM8.40364 4.686C8.40364 5.29181 8.89793 5.78616 9.50375 5.78616H9.66584C9.85765 5.78616 10.0159 5.9445 10.0159 6.13631C10.0159 6.32812 9.85765 6.48647 9.66584 6.48647H9.43756C9.32046 6.48647 9.22137 6.43453 9.15284 6.3398C9.03153 6.17231 8.79739 6.13495 8.6299 6.25631C8.46242 6.37767 8.42506 6.61181 8.54642 6.77925C8.70514 6.99877 8.94528 7.15462 9.20979 7.21195V7.48097C9.20979 7.68806 9.3777 7.85597 9.58479 7.85597C9.79189 7.85597 9.95979 7.68806 9.95979 7.48097V7.19639C10.4336 7.06448 10.766 6.63023 10.766 6.13627C10.766 5.53045 10.2717 5.03616 9.66589 5.03616H9.50379C9.31198 5.03616 9.15364 4.87781 9.15364 4.686C9.15364 4.49419 9.31198 4.33584 9.50379 4.33584H9.73207C9.84917 4.33584 9.94826 4.38778 10.0167 4.48252C10.1381 4.64995 10.3722 4.68736 10.5397 4.566C10.7072 4.44464 10.7445 4.21055 10.6232 4.04306C10.4644 3.8235 10.2243 3.66773 9.95979 3.61031V3.3413C9.95979 3.1342 9.79189 2.9663 9.58479 2.9663C9.3777 2.9663 9.20979 3.1342 9.20979 3.3413V3.62587C8.73603 3.75778 8.40364 4.19198 8.40364 4.686ZM4.5956 5.41116C4.5956 2.65566 6.82934 0.421875 9.58484 0.421875C12.3403 0.421875 14.5741 2.65566 14.5741 5.41116C14.5741 8.16666 12.3404 10.4004 9.58484 10.4004C6.82934 10.4004 4.5956 8.16661 4.5956 5.41116ZM5.72745 5.41116C5.72745 7.54144 7.45456 9.26859 9.58484 9.26859C11.7152 9.26859 13.4423 7.54148 13.4423 5.41116C13.4423 3.28083 11.7152 1.55377 9.58484 1.55377C7.45456 1.55372 5.72745 3.28083 5.72745 5.41116ZM15.3154 5.72644C15.3629 5.7247 15.4107 5.72377 15.4587 5.72377C17.5891 5.72377 19.3161 7.45088 19.3161 9.5812C19.3161 11.7115 17.589 13.4386 15.4587 13.4386C13.7638 13.4386 12.2689 12.3317 11.7718 10.7186C11.4261 10.8612 11.0635 10.971 10.6876 11.0441C11.3129 13.0857 13.2124 14.5705 15.4587 14.5705C18.2142 14.5705 20.448 12.3367 20.448 9.5812C20.448 6.8257 18.2142 4.59192 15.4587 4.59192C15.3942 4.59192 15.3301 4.59356 15.2662 4.59595C15.3041 4.8623 15.3241 5.13431 15.3241 5.41111C15.3241 5.51695 15.321 5.622 15.3154 5.72644ZM14.5054 10.4263C14.6728 10.3058 14.9063 10.3438 15.0268 10.5113C15.0944 10.6046 15.1964 10.6564 15.3115 10.6564H15.5398C15.7316 10.6564 15.8899 10.4981 15.8899 10.3063C15.8899 10.1145 15.7316 9.95611 15.5398 9.95611H15.3777C14.7719 9.95611 14.2776 9.46181 14.2776 8.85595C14.2776 8.80289 14.2814 8.75067 14.2887 8.69958C13.8086 9.38503 13.1825 9.96094 12.4555 10.3817C12.8164 11.739 14.0493 12.6885 15.4588 12.6885C17.175 12.6885 18.5662 11.2973 18.5662 9.58106C18.5662 7.86483 17.175 6.47363 15.4588 6.47363C15.3798 6.47363 15.3014 6.47658 15.2239 6.48239C15.1244 7.00866 14.9533 7.50956 14.7208 7.97442C14.8284 7.89398 14.9511 7.83272 15.0838 7.79578V7.51125C15.0838 7.30416 15.2517 7.13625 15.4588 7.13625C15.6659 7.13625 15.8338 7.30416 15.8338 7.51125V7.78022C16.0999 7.83797 16.3375 7.99359 16.4972 8.21442C16.6177 8.38191 16.5797 8.61534 16.4122 8.73591C16.2447 8.85642 16.0113 8.81841 15.8907 8.65097C15.8232 8.55759 15.7212 8.50575 15.6061 8.50575H15.3778C15.186 8.50575 15.0277 8.66409 15.0277 8.85591C15.0277 9.04772 15.186 9.20606 15.3778 9.20606H15.5399C16.1457 9.20606 16.64 9.70036 16.64 10.3062C16.64 10.8002 16.3077 11.2344 15.8338 11.3663V11.6509C15.8338 11.858 15.6659 12.0259 15.4588 12.0259C15.2517 12.0259 15.0838 11.858 15.0838 11.6509V11.3819C14.8177 11.3242 14.5801 11.1685 14.4205 10.9477C14.2999 10.7804 14.3379 10.5469 14.5054 10.4263Z" fill="#E67225"/>
</svg>
