<svg width="24" height="24" viewBox="0 0 24 24" fill="none" xmlns="http://www.w3.org/2000/svg">
<g clip-path="url(#clip0_8323_11629)">
<path d="M12.25 2H11.15C10.82 0.85 9.76 0 8.5 0C7.24 0 6.18 0.85 5.85 2H4.75C4.34 2 4 2.34 4 2.75V4.25C4 5.21 4.79 6 5.75 6H11.25C12.21 6 13 5.21 13 4.25V2.75C13 2.34 12.66 2 12.25 2Z" fill="#E67225"/>
<path d="M14.25 3H14V4.25C14 5.77 12.77 7 11.25 7H5.75C4.23 7 3 5.77 3 4.25V3H2.75C1.23 3 0 4.23 0 5.75V18.25C0 19.77 1.23 21 2.75 21H10.13L10.35 19.77C10.45 19.21 10.71 18.71 11.11 18.3L11.91 17.5H3.75C3.34 17.5 3 17.16 3 16.75C3 16.34 3.34 16 3.75 16H13.25C13.3 16 13.34 16 13.39 16.02H13.4L17 12.42V5.75C17 4.23 15.77 3 14.25 3ZM13.25 14.25H3.75C3.34 14.25 3 13.91 3 13.5C3 13.09 3.34 12.75 3.75 12.75H13.25C13.66 12.75 14 13.09 14 13.5C14 13.91 13.66 14.25 13.25 14.25ZM13.25 11H3.75C3.34 11 3 10.66 3 10.25C3 9.84 3.34 9.5 3.75 9.5H13.25C13.66 9.5 14 9.84 14 10.25C14 10.66 13.66 11 13.25 11Z" fill="#E67225"/>
<path d="M12.5309 24.0001C12.3339 24.0001 12.1419 23.9221 12.0009 23.7801C11.8279 23.6071 11.7499 23.3611 11.7929 23.1191L12.3229 20.1141C12.3489 19.9631 12.4229 19.8231 12.5309 19.7141L19.9559 12.2901C20.8679 11.3761 21.7639 11.6231 22.2539 12.1131L23.4909 13.3501C24.1739 14.0321 24.1739 15.1421 23.4909 15.8251L16.0659 23.2501C15.9579 23.3591 15.8179 23.4321 15.6659 23.4581L12.6609 23.9881C12.6179 23.9961 12.5739 24.0001 12.5309 24.0001Z" fill="#E67225"/>
</g>
<defs>
<clipPath id="clip0_8323_11629">
<rect width="24" height="24" fill="white"/>
</clipPath>
</defs>
</svg>
