<svg width="24" height="24" viewBox="0 0 24 24" fill="none" xmlns="http://www.w3.org/2000/svg">
<g clip-path="url(#clip0_8323_11428)">
<path d="M23.751 16.4431L21.477 14.1689L16.7728 18.8731C15.9331 19.7128 14.8792 20.2603 13.7344 20.4652L16.7316 23.4625C17.0061 23.7371 17.4514 23.7371 17.7259 23.4625L23.751 17.4376C24.0256 17.1629 24.0256 16.7176 23.751 16.4431Z" fill="#E67225"/>
<path d="M20.5468 13.1072C21.3395 12.3148 21.3397 11.0251 20.5479 10.2321C20.547 10.2312 20.5461 10.2303 20.5452 10.2294C20.3493 10.0336 20.1204 9.88274 19.8712 9.78185C20.0872 9.23528 20.1328 8.31096 19.4171 7.59502C19.4152 7.59319 19.4134 7.59118 19.4114 7.58934C19.2164 7.39562 18.989 7.2462 18.7414 7.14586C18.9575 6.59966 19.0032 5.67516 18.2879 4.95958C18.2873 4.95903 18.2869 4.95867 18.2866 4.9583C18.0905 4.76219 17.8614 4.61095 17.6118 4.51006C17.8279 3.96349 17.8735 3.03899 17.1577 2.32304C17.1575 2.32304 17.1575 2.32286 17.1574 2.32286C17.1572 2.32268 17.157 2.32249 17.1568 2.32231C16.3638 1.52928 15.0736 1.52928 14.2806 2.32231L12.9474 3.65532L13.6291 4.33702C14.7651 5.47301 14.7651 7.32128 13.6293 8.45726C13.247 8.83941 12.7773 9.10198 12.2653 9.22704C12.1428 9.72619 11.8872 10.1993 11.4978 10.5886C11.116 10.9704 10.647 11.2328 10.1356 11.358C10.0106 11.8693 9.74799 12.3384 9.3664 12.72C8.98463 13.1017 8.51569 13.3641 8.00428 13.4894C7.87922 14.0006 7.61664 14.4697 7.23505 14.8515C6.68482 15.4015 5.95313 15.7048 5.17493 15.7048C4.39673 15.7048 3.66504 15.4017 3.11481 14.8513L2.43311 14.1696L0.159119 16.4438C-0.11554 16.7184 -0.11554 17.1636 0.159119 17.4382L6.18403 23.4631C6.45868 23.7378 6.90381 23.7376 7.17847 23.4631L11.4913 19.1504H12.7064C13.8655 19.1504 14.9551 18.6989 15.7747 17.8795L20.5468 13.1072Z" fill="#E67225"/>
<path d="M4.11069 13.8569C4.69919 14.4455 5.65354 14.4455 6.24204 13.8569C6.83072 13.2684 6.83072 12.3142 6.24204 11.7255C6.83072 12.3142 7.78489 12.3142 8.37357 11.7255C8.96207 11.137 8.96207 10.1827 8.37357 9.59415C8.96207 10.1827 9.91642 10.1827 10.5049 9.59415C11.0934 9.00565 11.0934 8.0513 10.5049 7.4628C11.0934 8.0513 12.0478 8.0513 12.6363 7.4628C13.225 6.87412 13.225 5.91996 12.6363 5.33127L9.63114 2.32614C9.04264 1.73764 8.08829 1.73764 7.49979 2.32614C6.91129 2.91464 6.91129 3.86899 7.49979 4.45749L7.87626 4.83414C7.28775 4.24545 6.33341 4.24545 5.74491 4.83414C5.1564 5.42264 5.1564 6.37699 5.74491 6.96549L6.49802 7.7186C5.90952 7.1301 4.95517 7.1301 4.36667 7.7186C3.77799 8.3071 3.77799 9.26145 4.36667 9.84995L5.11978 10.6032C4.5311 10.0146 3.57694 10.0146 2.98825 10.6032C2.39975 11.1917 2.39975 12.1459 2.98825 12.7346L4.11069 13.8569Z" fill="#E67225"/>
<path d="M13.286 1.32749C13.39 1.22348 13.5001 1.1279 13.6145 1.03909L13.2032 0.627839C12.9894 0.413789 12.6622 0.360872 12.3917 0.496003L10.6562 1.36374L11.953 2.66068L13.286 1.32749Z" fill="#E67225"/>
</g>
<defs>
<clipPath id="clip0_8323_11428">
<rect width="24" height="24" fill="white"/>
</clipPath>
</defs>
</svg>
