<svg width="24" height="24" viewBox="0 0 24 24" fill="none" xmlns="http://www.w3.org/2000/svg">
<path fill-rule="evenodd" clip-rule="evenodd" d="M21.4825 22.6692L23.0482 21.0557C23.3232 20.7723 23.3162 20.3156 23.0329 20.0406L18.6964 15.8326C18.4131 15.5576 17.9562 15.5645 17.6813 15.8478L17.5843 15.9478L15.1214 13.5312C16.0175 12.2504 16.5433 10.6916 16.5433 9.00994C16.5433 4.64873 13.0079 1.11328 8.64666 1.11328C4.28545 1.11333 0.75 4.64878 0.75 9.00998C0.75 11.9428 2.34886 14.502 4.72242 15.864C4.93266 15.4395 5.20955 15.0541 5.53959 14.7214C3.45159 13.5831 2.14594 11.4002 2.14594 9.00998C2.14594 5.41983 5.0565 2.50927 8.64666 2.50927C12.2368 2.50927 15.1474 5.41983 15.1474 9.00998C15.1474 11.4002 13.8418 13.583 11.7538 14.7214C12.0839 15.0541 12.3608 15.4395 12.571 15.864C13.0021 15.6166 13.4075 15.3295 13.7826 15.0081L16.197 17.3775L16.1156 17.4614C15.8407 17.7447 15.8475 18.2016 16.1309 18.4765L20.4674 22.6844C20.7508 22.9594 21.2076 22.9526 21.4825 22.6692ZM8.6467 14.177C10.6499 14.177 12.2738 15.8009 12.2738 17.804C12.2738 19.8071 10.6499 21.431 8.6467 21.431C6.64355 21.431 5.0197 19.8071 5.0197 17.804C5.0197 15.8009 6.64355 14.177 8.6467 14.177ZM8.17031 18.1239L9.93394 16.3427C10.1427 16.1318 10.4833 16.1312 10.6935 16.3403C10.9037 16.5494 10.9043 16.889 10.6958 17.0994C9.98067 17.8212 9.27033 18.5478 8.55188 19.2663C8.34183 19.4763 8.00114 19.4763 7.79109 19.2663L6.59906 18.0743C6.38902 17.8643 6.38902 17.5236 6.59906 17.3135C6.80911 17.1035 7.14984 17.1035 7.35989 17.3135L8.17031 18.1239ZM8.6467 4.80628C9.84117 4.80628 10.8095 5.77462 10.8095 6.96909C10.8095 8.16361 9.84117 9.13195 8.6467 9.13195C7.45219 9.13195 6.48384 8.16361 6.48384 6.96909C6.48389 5.77462 7.45223 4.80628 8.6467 4.80628ZM4.46794 12.9608C3.49355 11.9305 2.89594 10.5401 2.89594 9.00998C2.89594 5.83387 5.47055 3.25927 8.64666 3.25927C11.8228 3.25927 14.3974 5.83392 14.3974 9.00998C14.3974 10.54 13.7998 11.9304 12.8254 12.9607C12.3967 10.9995 10.6537 9.60075 8.6467 9.60075C6.6397 9.6007 4.8967 10.9995 4.46794 12.9608Z" fill="#E67225"/>
</svg>
