<svg width="40" height="41" viewBox="0 0 40 41" fill="none" xmlns="http://www.w3.org/2000/svg">
<path fill-rule="evenodd" clip-rule="evenodd" d="M34.0331 6.03327C30.3131 2.30727 25.3571 0.255268 20.0831 0.249268C9.21708 0.249268 0.367078 9.09327 0.367078 19.9653C0.367078 23.4393 1.27308 26.8353 3.00108 29.8233L0.205078 40.0413L10.6571 37.2993C13.5371 38.8713 16.7771 39.6993 20.0771 39.6993H20.0831C30.9491 39.6993 39.7931 30.8553 39.7991 19.9833C39.8051 14.7153 37.7591 9.75927 34.0331 6.03327ZM20.0891 36.3693H20.0831C17.1431 36.3693 14.2571 35.5773 11.7431 34.0833L11.1431 33.7293L4.93908 35.3553L6.59508 29.3073L6.20508 28.6893C4.56708 26.0793 3.69708 23.0673 3.69708 19.9653C3.70308 10.9293 11.0531 3.57927 20.0951 3.57927C24.4751 3.57927 28.5851 5.28927 31.6811 8.38527C34.7771 11.4813 36.4811 15.6033 36.4751 19.9773C36.4751 29.0193 29.1191 36.3693 20.0891 36.3693ZM29.0771 24.0933C28.5851 23.8473 26.1611 22.6533 25.7111 22.4913C25.2611 22.3293 24.9311 22.2453 24.6011 22.7373C24.2711 23.2293 23.3291 24.3393 23.0411 24.6693C22.7531 24.9993 22.4651 25.0413 21.9731 24.7953C21.4811 24.5493 19.8911 24.0273 18.0131 22.3473C16.5491 21.0393 15.5591 19.4253 15.2711 18.9333C14.9831 18.4413 15.2411 18.1713 15.4871 17.9253C15.7091 17.7033 15.9791 17.3493 16.2251 17.0613C16.4711 16.7733 16.5551 16.5693 16.7171 16.2393C16.8791 15.9093 16.8011 15.6213 16.6751 15.3753C16.5491 15.1293 15.5651 12.7053 15.1571 11.7153C14.7551 10.7553 14.3531 10.8873 14.0471 10.8693C13.7591 10.8573 13.4291 10.8513 13.1051 10.8513C12.7751 10.8513 12.2411 10.9773 11.7911 11.4693C11.3411 11.9613 10.0691 13.1553 10.0691 15.5793C10.0691 18.0033 11.8331 20.3493 12.0791 20.6733C12.3251 21.0033 15.5531 25.9773 20.4971 28.1133C21.6731 28.6233 22.5911 28.9233 23.3051 29.1513C24.4871 29.5293 25.5611 29.4753 26.4071 29.3493C27.3551 29.2053 29.3231 28.1553 29.7311 27.0093C30.1391 25.8573 30.1391 24.8733 30.0191 24.6693C29.8991 24.4653 29.5691 24.3453 29.0771 24.0933Z" fill="white"/>
</svg>
