<svg width="24" height="24" viewBox="0 0 24 24" fill="none" xmlns="http://www.w3.org/2000/svg">
<path d="M14.4272 18.8201C14.2372 18.8201 14.0472 18.7501 13.8972 18.6001C13.6072 18.3101 13.6072 17.8301 13.8972 17.5401L19.4372 12.0001L13.8972 6.46012C13.6072 6.17012 13.6072 5.69012 13.8972 5.40012C14.1872 5.11012 14.6672 5.11012 14.9572 5.40012L21.0272 11.4701C21.3172 11.7601 21.3172 12.2401 21.0272 12.5301L14.9572 18.6001C14.8072 18.7501 14.6172 18.8201 14.4272 18.8201Z" fill="white"/>
<path d="M20.33 12.75H3.5C3.09 12.75 2.75 12.41 2.75 12C2.75 11.59 3.09 11.25 3.5 11.25H20.33C20.74 11.25 21.08 11.59 21.08 12C21.08 12.41 20.74 12.75 20.33 12.75Z" fill="white"/>
</svg>
