<svg width="24" height="25" viewBox="0 0 24 25" fill="none" xmlns="http://www.w3.org/2000/svg">
<path d="M17.7364 16.183C17.5956 16.3107 17.4079 16.3864 17.196 16.376C16.7864 16.3559 16.464 16.0003 16.4841 15.5907L16.8679 7.76532L9.04257 7.38148C8.63294 7.36139 8.31057 7.00575 8.33066 6.59612C8.35075 6.18649 8.70638 5.86412 9.11601 5.88421L17.69 6.30477C18.0996 6.32486 18.422 6.68049 18.4019 7.09012L17.9813 15.6641C17.9709 15.876 17.8772 16.0554 17.7364 16.183Z" fill="white"/>
<path d="M18.0324 7.7233L5.5631 19.0266C5.25933 19.3019 4.77907 19.2784 4.50371 18.9746C4.22835 18.6709 4.25191 18.1906 4.55568 17.9152L17.025 6.61195C17.3288 6.33659 17.809 6.36014 18.0844 6.66391C18.3598 6.96768 18.3362 7.44794 18.0324 7.7233Z" fill="white"/>
</svg>
