<svg width="18" height="18" viewBox="0 0 18 18" fill="none" xmlns="http://www.w3.org/2000/svg">
<path d="M6 4.3125C5.6925 4.3125 5.4375 4.0575 5.4375 3.75V1.5C5.4375 1.1925 5.6925 0.9375 6 0.9375C6.3075 0.9375 6.5625 1.1925 6.5625 1.5V3.75C6.5625 4.0575 6.3075 4.3125 6 4.3125Z" fill="white"/>
<path d="M12 4.3125C11.6925 4.3125 11.4375 4.0575 11.4375 3.75V1.5C11.4375 1.1925 11.6925 0.9375 12 0.9375C12.3075 0.9375 12.5625 1.1925 12.5625 1.5V3.75C12.5625 4.0575 12.3075 4.3125 12 4.3125Z" fill="white"/>
<path d="M6.375 10.8747C6.2775 10.8747 6.18 10.8523 6.09 10.8148C5.9925 10.7773 5.9175 10.7247 5.8425 10.6572C5.7075 10.5147 5.625 10.3272 5.625 10.1247C5.625 10.0272 5.6475 9.92974 5.685 9.83974C5.7225 9.74974 5.775 9.66725 5.8425 9.59225C5.9175 9.52475 5.9925 9.47224 6.09 9.43474C6.36 9.32224 6.6975 9.38225 6.9075 9.59225C7.0425 9.73475 7.125 9.92975 7.125 10.1247C7.125 10.1697 7.1175 10.2223 7.11 10.2748C7.1025 10.3198 7.0875 10.3647 7.065 10.4097C7.05 10.4547 7.0275 10.4997 6.9975 10.5447C6.975 10.5822 6.9375 10.6197 6.9075 10.6572C6.765 10.7922 6.57 10.8747 6.375 10.8747Z" fill="white"/>
<path d="M9 10.8751C8.9025 10.8751 8.805 10.8527 8.715 10.8152C8.6175 10.7777 8.5425 10.7251 8.4675 10.6576C8.3325 10.5151 8.25 10.3276 8.25 10.1251C8.25 10.0276 8.2725 9.93015 8.31 9.84015C8.3475 9.75015 8.4 9.66766 8.4675 9.59266C8.5425 9.52516 8.6175 9.47264 8.715 9.43514C8.985 9.31514 9.3225 9.38266 9.5325 9.59266C9.6675 9.73516 9.75 9.93015 9.75 10.1251C9.75 10.1701 9.7425 10.2227 9.735 10.2752C9.7275 10.3202 9.7125 10.3652 9.69 10.4102C9.675 10.4552 9.6525 10.5001 9.6225 10.5451C9.6 10.5826 9.5625 10.6201 9.5325 10.6576C9.39 10.7926 9.195 10.8751 9 10.8751Z" fill="white"/>
<path d="M11.625 10.8751C11.5275 10.8751 11.43 10.8527 11.34 10.8152C11.2425 10.7777 11.1675 10.7251 11.0925 10.6576C11.0625 10.6201 11.0325 10.5826 11.0025 10.5451C10.9725 10.5001 10.95 10.4552 10.935 10.4102C10.9125 10.3652 10.8975 10.3202 10.89 10.2752C10.8825 10.2227 10.875 10.1701 10.875 10.1251C10.875 9.93015 10.9575 9.73516 11.0925 9.59266C11.1675 9.52516 11.2425 9.47264 11.34 9.43514C11.6175 9.31514 11.9475 9.38266 12.1575 9.59266C12.2925 9.73516 12.375 9.93015 12.375 10.1251C12.375 10.1701 12.3675 10.2227 12.36 10.2752C12.3525 10.3202 12.3375 10.3652 12.315 10.4102C12.3 10.4552 12.2775 10.5001 12.2475 10.5451C12.225 10.5826 12.1875 10.6201 12.1575 10.6576C12.015 10.7926 11.82 10.8751 11.625 10.8751Z" fill="white"/>
<path d="M6.375 13.5004C6.2775 13.5004 6.18 13.4779 6.09 13.4404C6 13.4029 5.9175 13.3504 5.8425 13.2829C5.7075 13.1404 5.625 12.9454 5.625 12.7504C5.625 12.6529 5.6475 12.5554 5.685 12.4654C5.7225 12.3679 5.775 12.2854 5.8425 12.2179C6.12 11.9404 6.63 11.9404 6.9075 12.2179C7.0425 12.3604 7.125 12.5554 7.125 12.7504C7.125 12.9454 7.0425 13.1404 6.9075 13.2829C6.765 13.4179 6.57 13.5004 6.375 13.5004Z" fill="white"/>
<path d="M9 13.5004C8.805 13.5004 8.61 13.4179 8.4675 13.2829C8.3325 13.1404 8.25 12.9454 8.25 12.7504C8.25 12.6529 8.2725 12.5554 8.31 12.4654C8.3475 12.3679 8.4 12.2854 8.4675 12.2179C8.745 11.9404 9.255 11.9404 9.5325 12.2179C9.6 12.2854 9.6525 12.3679 9.69 12.4654C9.7275 12.5554 9.75 12.6529 9.75 12.7504C9.75 12.9454 9.6675 13.1404 9.5325 13.2829C9.39 13.4179 9.195 13.5004 9 13.5004Z" fill="white"/>
<path d="M11.625 13.4997C11.43 13.4997 11.235 13.4172 11.0925 13.2822C11.025 13.2147 10.9725 13.1322 10.935 13.0347C10.8975 12.9447 10.875 12.8472 10.875 12.7497C10.875 12.6522 10.8975 12.5547 10.935 12.4647C10.9725 12.3672 11.025 12.2847 11.0925 12.2172C11.265 12.0447 11.5275 11.9622 11.7675 12.0147C11.82 12.0222 11.865 12.0372 11.91 12.0597C11.955 12.0747 12 12.0972 12.045 12.1272C12.0825 12.1497 12.12 12.1872 12.1575 12.2172C12.2925 12.3597 12.375 12.5547 12.375 12.7497C12.375 12.9447 12.2925 13.1397 12.1575 13.2822C12.015 13.4172 11.82 13.4997 11.625 13.4997Z" fill="white"/>
<path d="M15.375 7.37988H2.625C2.3175 7.37988 2.0625 7.12488 2.0625 6.81738C2.0625 6.50988 2.3175 6.25488 2.625 6.25488H15.375C15.6825 6.25488 15.9375 6.50988 15.9375 6.81738C15.9375 7.12488 15.6825 7.37988 15.375 7.37988Z" fill="white"/>
<path d="M12 17.0625H6C3.2625 17.0625 1.6875 15.4875 1.6875 12.75V6.375C1.6875 3.6375 3.2625 2.0625 6 2.0625H12C14.7375 2.0625 16.3125 3.6375 16.3125 6.375V12.75C16.3125 15.4875 14.7375 17.0625 12 17.0625ZM6 3.1875C3.855 3.1875 2.8125 4.23 2.8125 6.375V12.75C2.8125 14.895 3.855 15.9375 6 15.9375H12C14.145 15.9375 15.1875 14.895 15.1875 12.75V6.375C15.1875 4.23 14.145 3.1875 12 3.1875H6Z" fill="white"/>
</svg>
