<svg width="20" height="20" viewBox="0 0 20 20" fill="none" xmlns="http://www.w3.org/2000/svg">
<path d="M14.5391 18.9587C13.5974 18.9587 12.6057 18.7337 11.5807 18.3003C10.5807 17.8753 9.5724 17.292 8.58906 16.5837C7.61406 15.867 6.6724 15.067 5.78073 14.192C4.8974 13.3003 4.0974 12.3587 3.38906 11.392C2.6724 10.392 2.0974 9.39199 1.68906 8.42533C1.25573 7.39199 1.03906 6.39199 1.03906 5.45033C1.03906 4.80033 1.15573 4.18366 1.38073 3.60866C1.61406 3.01699 1.98906 2.46699 2.4974 1.99199C3.13906 1.35866 3.8724 1.04199 4.65573 1.04199C4.98073 1.04199 5.31406 1.11699 5.5974 1.25033C5.9224 1.40033 6.1974 1.62533 6.3974 1.92533L8.33073 4.65033C8.50573 4.89199 8.63906 5.12533 8.73073 5.35866C8.83906 5.60866 8.8974 5.85866 8.8974 6.10033C8.8974 6.41699 8.80573 6.72533 8.63073 7.01699C8.50573 7.24199 8.31406 7.48366 8.0724 7.72533L7.50573 8.31699C7.51406 8.34199 7.5224 8.35866 7.53073 8.37533C7.63073 8.55033 7.83073 8.85033 8.21406 9.30033C8.6224 9.76699 9.00573 10.192 9.38906 10.5837C9.88073 11.067 10.2891 11.4503 10.6724 11.767C11.1474 12.167 11.4557 12.367 11.6391 12.4587L11.6224 12.5003L12.2307 11.9003C12.4891 11.642 12.7391 11.4503 12.9807 11.3253C13.4391 11.042 14.0224 10.992 14.6057 11.2337C14.8224 11.3253 15.0557 11.4503 15.3057 11.6253L18.0724 13.592C18.3807 13.8003 18.6057 14.067 18.7391 14.3837C18.8641 14.7003 18.9224 14.992 18.9224 15.2837C18.9224 15.6837 18.8307 16.0837 18.6557 16.4587C18.4807 16.8337 18.2641 17.1587 17.9891 17.4587C17.5141 17.9837 16.9974 18.3587 16.3974 18.6003C15.8224 18.8337 15.1974 18.9587 14.5391 18.9587ZM4.65573 2.29199C4.1974 2.29199 3.7724 2.49199 3.36406 2.89199C2.98073 3.25033 2.71406 3.64199 2.5474 4.06699C2.3724 4.50033 2.28906 4.95866 2.28906 5.45033C2.28906 6.22533 2.4724 7.06699 2.83906 7.93366C3.21406 8.81699 3.73906 9.73366 4.40573 10.6503C5.0724 11.567 5.83073 12.4587 6.66406 13.3003C7.4974 14.1253 8.3974 14.892 9.3224 15.567C10.2224 16.2253 11.1474 16.7587 12.0641 17.142C13.4891 17.7503 14.8224 17.892 15.9224 17.4337C16.3474 17.2587 16.7224 16.992 17.0641 16.6087C17.2557 16.4003 17.4057 16.1753 17.5307 15.9087C17.6307 15.7003 17.6807 15.4837 17.6807 15.267C17.6807 15.1337 17.6557 15.0003 17.5891 14.8503C17.5641 14.8003 17.5141 14.7087 17.3557 14.6003L14.5891 12.6337C14.4224 12.517 14.2724 12.4337 14.1307 12.3753C13.9474 12.3003 13.8724 12.2253 13.5891 12.4003C13.4224 12.4837 13.2724 12.6087 13.1057 12.7753L12.4724 13.4003C12.1474 13.717 11.6474 13.792 11.2641 13.6503L11.0391 13.5503C10.6974 13.367 10.2974 13.0837 9.85573 12.7087C9.45573 12.367 9.0224 11.967 8.4974 11.4503C8.08906 11.0337 7.68073 10.592 7.25573 10.1003C6.86406 9.64199 6.58073 9.25033 6.40573 8.92533L6.30573 8.67533C6.25573 8.48366 6.23906 8.37533 6.23906 8.25866C6.23906 7.95866 6.3474 7.69199 6.55573 7.48366L7.18073 6.83366C7.3474 6.66699 7.4724 6.50866 7.55573 6.36699C7.6224 6.25866 7.6474 6.16699 7.6474 6.08366C7.6474 6.01699 7.6224 5.91699 7.58073 5.81699C7.5224 5.68366 7.43073 5.53366 7.31406 5.37533L5.38073 2.64199C5.2974 2.52533 5.1974 2.44199 5.0724 2.38366C4.93906 2.32533 4.7974 2.29199 4.65573 2.29199ZM11.6224 12.5087L11.4891 13.0753L11.7141 12.492C11.6724 12.4837 11.6391 12.492 11.6224 12.5087Z" fill="white"/>
</svg>
