<svg width="16" height="16" viewBox="0 0 16 16" fill="none" xmlns="http://www.w3.org/2000/svg">
<path d="M6.23281 10.2381C6.11406 10.2381 5.99531 10.1943 5.90156 10.1006C5.72031 9.91934 5.72031 9.61934 5.90156 9.43809L9.43906 5.90059C9.62031 5.71934 9.92031 5.71934 10.1016 5.90059C10.2828 6.08184 10.2828 6.38184 10.1016 6.56309L6.56406 10.1006C6.47656 10.1943 6.35156 10.2381 6.23281 10.2381Z" fill="white"/>
<path d="M9.77031 10.2381C9.65156 10.2381 9.53281 10.1943 9.43906 10.1006L5.90156 6.56309C5.72031 6.38184 5.72031 6.08184 5.90156 5.90059C6.08281 5.71934 6.38281 5.71934 6.56406 5.90059L10.1016 9.43809C10.2828 9.61934 10.2828 9.91934 10.1016 10.1006C10.0078 10.1943 9.88906 10.2381 9.77031 10.2381Z" fill="white"/>
<path d="M9.875 14.7188H6.125C2.73125 14.7188 1.28125 13.2687 1.28125 9.875V6.125C1.28125 2.73125 2.73125 1.28125 6.125 1.28125H9.875C13.2687 1.28125 14.7188 2.73125 14.7188 6.125V9.875C14.7188 13.2687 13.2687 14.7188 9.875 14.7188ZM6.125 2.21875C3.24375 2.21875 2.21875 3.24375 2.21875 6.125V9.875C2.21875 12.7563 3.24375 13.7812 6.125 13.7812H9.875C12.7563 13.7812 13.7812 12.7563 13.7812 9.875V6.125C13.7812 3.24375 12.7563 2.21875 9.875 2.21875H6.125Z" fill="white"/>
</svg>
