<svg width="18" height="18" viewBox="0 0 18 18" fill="none" xmlns="http://www.w3.org/2000/svg">
<path d="M6.75 1.4375H8.25C8.26306 1.4375 8.27868 1.44274 8.29297 1.45703C8.30726 1.47132 8.3125 1.48694 8.3125 1.5C8.3125 1.51306 8.30726 1.52868 8.29297 1.54297C8.27868 1.55726 8.26306 1.5625 8.25 1.5625H6.75C4.98597 1.5625 3.64092 1.8708 2.75586 2.75586C1.8708 3.64092 1.5625 4.98597 1.5625 6.75V11.25C1.5625 13.014 1.8708 14.3591 2.75586 15.2441C3.64092 16.1292 4.98597 16.4375 6.75 16.4375H11.25C13.014 16.4375 14.3591 16.1292 15.2441 15.2441C16.1292 14.3591 16.4375 13.014 16.4375 11.25V9.75C16.4375 9.73694 16.4427 9.72132 16.457 9.70703C16.4713 9.69274 16.4869 9.6875 16.5 9.6875C16.5131 9.6875 16.5287 9.69274 16.543 9.70703C16.5573 9.72132 16.5625 9.73694 16.5625 9.75V11.25C16.5625 13.2289 16.138 14.5221 15.3301 15.3301C14.5221 16.138 13.2289 16.5625 11.25 16.5625H6.75C4.77115 16.5625 3.47785 16.138 2.66992 15.3301C1.86199 14.5221 1.4375 13.2289 1.4375 11.25V6.75C1.4375 4.77115 1.86199 3.47785 2.66992 2.66992C3.47785 1.86199 4.77115 1.4375 6.75 1.4375Z" stroke="white"/>
<path d="M13.8828 1.24805C14.4566 1.24805 15.089 1.53044 15.7793 2.2207C16.5299 2.97134 16.8005 3.66474 16.7451 4.2998C16.693 4.82145 16.4126 5.38052 15.7812 6.00488L15.7793 6.00684L9.86914 11.916C9.63671 12.1484 9.17384 12.382 8.84961 12.4268L8.84766 12.4277L6.58984 12.75L6.56836 12.7529L6.54785 12.7578C6.53428 12.7609 6.51445 12.7639 6.48535 12.7656C6.45466 12.7674 6.42183 12.7676 6.375 12.7676C6.08097 12.7675 5.82068 12.6754 5.62109 12.5166L5.54004 12.4443C5.30133 12.2028 5.18088 11.8368 5.24316 11.4121V11.4102L5.56543 9.15332V9.15039C5.61024 8.82624 5.84386 8.36326 6.07617 8.13086L11.9863 2.2207C12.6767 1.53038 13.309 1.2481 13.8828 1.24805ZM13.7119 1.38477C13.0625 1.44499 12.5299 1.85778 12.0762 2.30762L12.0742 2.30859L6.16406 8.21875C6.03911 8.34374 5.93398 8.51501 5.86035 8.66113C5.78665 8.80744 5.71288 8.99273 5.68652 9.16406L5.68555 9.16895L5.36328 11.4268L5.3623 11.4287C5.3196 11.7383 5.37033 12.0998 5.63184 12.3613C5.89325 12.6226 6.25402 12.6725 6.56348 12.6299H6.56641L8.82324 12.3076L8.8291 12.3066C8.99908 12.2805 9.18506 12.2068 9.33301 12.1328C9.47468 12.062 9.64743 11.9565 9.77344 11.8271L9.77441 11.8281L15.6836 5.91895C16.2016 5.40093 16.5549 4.86102 16.6084 4.2832C16.6736 3.57559 16.2937 2.91894 15.6865 2.30371L15.6836 2.30176L15.4404 2.07324C14.8728 1.5759 14.305 1.32987 13.7119 1.38477Z" fill="white" stroke="white"/>
<path d="M14.8906 7.3727C14.8381 7.3727 14.7856 7.3652 14.7406 7.3502C12.7681 6.7952 11.2006 5.2277 10.6456 3.2552C10.5631 2.9552 10.7356 2.6477 11.0356 2.5577C11.3356 2.4752 11.6431 2.6477 11.7256 2.9477C12.1756 4.5452 13.4431 5.8127 15.0406 6.2627C15.3406 6.3452 15.5131 6.6602 15.4306 6.9602C15.3631 7.2152 15.1381 7.3727 14.8906 7.3727Z" fill="white"/>
</svg>
