<svg width="24" height="24" viewBox="0 0 24 24" fill="none" xmlns="http://www.w3.org/2000/svg">
<path d="M9.47188 15.2799C9.28188 15.2799 9.09187 15.2099 8.94187 15.0599C8.12187 14.2399 7.67188 13.1499 7.67188 11.9999C7.67188 9.60992 9.61187 7.66992 12.0019 7.66992C13.1519 7.66992 14.2419 8.11992 15.0619 8.93992C15.2019 9.07992 15.2819 9.26992 15.2819 9.46992C15.2819 9.66992 15.2019 9.85992 15.0619 9.99992L10.0019 15.0599C9.85187 15.2099 9.66188 15.2799 9.47188 15.2799ZM12.0019 9.16992C10.4419 9.16992 9.17188 10.4399 9.17188 11.9999C9.17188 12.4999 9.30187 12.9799 9.54187 13.3999L13.4019 9.53992C12.9819 9.29992 12.5019 9.16992 12.0019 9.16992Z" fill="#F8FAFC"/>
<path d="M5.60375 18.5105C5.43375 18.5105 5.25375 18.4505 5.11375 18.3305C4.04375 17.4205 3.08375 16.3005 2.26375 15.0005C1.20375 13.3505 1.20375 10.6605 2.26375 9.00047C4.70375 5.18047 8.25375 2.98047 12.0037 2.98047C14.2037 2.98047 16.3738 3.74047 18.2738 5.17047C18.6038 5.42047 18.6737 5.89047 18.4237 6.22047C18.1737 6.55047 17.7038 6.62047 17.3738 6.37047C15.7338 5.13047 13.8737 4.48047 12.0037 4.48047C8.77375 4.48047 5.68375 6.42047 3.52375 9.81047C2.77375 10.9805 2.77375 13.0205 3.52375 14.1905C4.27375 15.3605 5.13375 16.3705 6.08375 17.1905C6.39375 17.4605 6.43375 17.9305 6.16375 18.2505C6.02375 18.4205 5.81375 18.5105 5.60375 18.5105Z" fill="#F8FAFC"/>
<path d="M12.0025 21.0205C10.6725 21.0205 9.3725 20.7505 8.1225 20.2205C7.7425 20.0605 7.5625 19.6205 7.7225 19.2405C7.8825 18.8605 8.3225 18.6805 8.7025 18.8405C9.7625 19.2905 10.8725 19.5205 11.9925 19.5205C15.2225 19.5205 18.3125 17.5805 20.4725 14.1905C21.2225 13.0205 21.2225 10.9805 20.4725 9.81049C20.1625 9.32049 19.8225 8.85049 19.4625 8.41049C19.2025 8.09049 19.2525 7.62049 19.5725 7.35049C19.8925 7.09049 20.3625 7.13049 20.6325 7.46049C21.0225 7.94049 21.4025 8.46049 21.7425 9.00049C22.8025 10.6505 22.8025 13.3405 21.7425 15.0005C19.3025 18.8205 15.7525 21.0205 12.0025 21.0205Z" fill="#F8FAFC"/>
<path d="M12.6915 16.2703C12.3415 16.2703 12.0215 16.0203 11.9515 15.6603C11.8715 15.2503 12.1415 14.8603 12.5515 14.7903C13.6515 14.5903 14.5715 13.6703 14.7715 12.5703C14.8515 12.1603 15.2415 11.9003 15.6515 11.9703C16.0615 12.0503 16.3315 12.4403 16.2515 12.8503C15.9315 14.5803 14.5515 15.9503 12.8315 16.2703C12.7815 16.2603 12.7415 16.2703 12.6915 16.2703Z" fill="#F8FAFC"/>
<path d="M1.9975 22.7497C1.8075 22.7497 1.6175 22.6797 1.4675 22.5297C1.1775 22.2397 1.1775 21.7597 1.4675 21.4697L8.9375 13.9997C9.2275 13.7097 9.7075 13.7097 9.9975 13.9997C10.2875 14.2897 10.2875 14.7697 9.9975 15.0597L2.5275 22.5297C2.3775 22.6797 2.1875 22.7497 1.9975 22.7497Z" fill="#F8FAFC"/>
<path d="M14.5287 10.2204C14.3387 10.2204 14.1488 10.1504 13.9988 10.0004C13.7088 9.71043 13.7088 9.23043 13.9988 8.94043L21.4687 1.47043C21.7587 1.18043 22.2388 1.18043 22.5288 1.47043C22.8188 1.76043 22.8188 2.24043 22.5288 2.53043L15.0588 10.0004C14.9088 10.1504 14.7187 10.2204 14.5287 10.2204Z" fill="#F8FAFC"/>
</svg>
