<svg width="18" height="18" viewBox="0 0 18 18" fill="none" xmlns="http://www.w3.org/2000/svg">
<path d="M14.3383 12.2879C14.1046 12.114 13.7742 12.1626 13.6004 12.3962C13.5048 12.5247 13.4025 12.6508 13.2963 12.7709C13.1034 12.9891 13.1239 13.3223 13.3421 13.5152C13.4425 13.6039 13.5671 13.6475 13.6912 13.6475C13.8371 13.6475 13.9823 13.5873 14.0865 13.4694C14.2122 13.3272 14.3334 13.1779 14.4466 13.0257C14.6204 12.7921 14.572 12.4617 14.3383 12.2879Z" fill="white"/>
<path d="M15.2189 9.81295C14.9345 9.75102 14.6534 9.9315 14.5915 10.2161C14.5574 10.3726 14.5162 10.5294 14.469 10.6823C14.383 10.9605 14.5389 11.2558 14.8171 11.3418C14.869 11.3578 14.9214 11.3654 14.973 11.3654C15.1981 11.3654 15.4067 11.22 15.4766 10.9936C15.5327 10.8122 15.5816 10.6261 15.622 10.4404C15.684 10.1558 15.5035 9.87492 15.2189 9.81295Z" fill="white"/>
<path d="M11.796 13.9771C11.6559 14.0553 11.511 14.1283 11.3651 14.1942C11.0997 14.3141 10.9817 14.6264 11.1016 14.8919C11.1896 15.0869 11.3815 15.2023 11.5825 15.2023C11.655 15.2023 11.7288 15.1872 11.7992 15.1554C11.9722 15.0773 12.1441 14.9907 12.3101 14.898C12.5644 14.756 12.6555 14.4348 12.5135 14.1805C12.3715 13.9262 12.0503 13.8352 11.796 13.9771Z" fill="white"/>
<path d="M8.471 4.78125V8.78157L6.53726 10.7153C6.33133 10.9212 6.33133 11.2551 6.53726 11.4611C6.64025 11.5641 6.77517 11.6155 6.91017 11.6155C7.04512 11.6155 7.18009 11.564 7.28308 11.4611L9.37126 9.37289C9.47013 9.27401 9.52569 9.13985 9.52569 9V4.78125C9.52569 4.49 9.2896 4.25391 8.99835 4.25391C8.70709 4.25391 8.471 4.49 8.471 4.78125Z" fill="white"/>
<path d="M15.2227 3.38379C14.9314 3.38379 14.6953 3.61988 14.6953 3.91113V5.37546C13.4679 3.45045 11.3243 2.25 9 2.25C7.19701 2.25 5.50194 2.95213 4.22701 4.22701C2.95213 5.50194 2.25 7.19701 2.25 9C2.25 10.803 2.95213 12.4981 4.22701 13.773C5.50194 15.0479 7.19701 15.75 9 15.75C9.00446 15.75 9.00875 15.7494 9.01318 15.7493C9.01761 15.7494 9.02191 15.75 9.02637 15.75C9.21642 15.75 9.40835 15.742 9.59687 15.7262C9.8871 15.7019 10.1027 15.4469 10.0784 15.1567C10.0541 14.8665 9.79943 14.6508 9.50886 14.6752C9.3495 14.6885 9.18718 14.6953 9.02637 14.6953C9.02191 14.6953 9.01761 14.6959 9.01318 14.696C9.00875 14.6959 9.00446 14.6953 9 14.6953C5.85959 14.6953 3.30469 12.1404 3.30469 9C3.30469 5.85959 5.85959 3.30469 9 3.30469C11.0239 3.30469 12.8854 4.38345 13.9026 6.09961H12.4526C12.1613 6.09961 11.9253 6.3357 11.9253 6.62695C11.9253 6.91821 12.1613 7.1543 12.4526 7.1543H14.0625C14.3837 7.1543 14.6841 7.06404 14.9399 6.90768C14.9564 6.8983 14.9722 6.8882 14.9873 6.87731C15.4462 6.57538 15.75 6.05602 15.75 5.4668V3.91113C15.75 3.61988 15.5139 3.38379 15.2227 3.38379Z" fill="white"/>
</svg>
