<svg width="24" height="24" viewBox="0 0 24 24" fill="none" xmlns="http://www.w3.org/2000/svg">
<path d="M21.3333 19.3333H2.66667C2.48986 19.3333 2.32029 19.2631 2.19526 19.1381C2.07024 19.013 2 18.8435 2 18.6667C2 18.4899 2.07024 18.3203 2.19526 18.1953C2.32029 18.0702 2.48986 18 2.66667 18H21.3333C21.5101 18 21.6797 18.0702 21.8047 18.1953C21.9298 18.3203 22 18.4899 22 18.6667C22 18.8435 21.9298 19.013 21.8047 19.1381C21.6797 19.2631 21.5101 19.3333 21.3333 19.3333Z" fill="white"/>
<path d="M21.3333 12.6663H2.66667C2.48986 12.6663 2.32029 12.5961 2.19526 12.4711C2.07024 12.3461 2 12.1765 2 11.9997C2 11.8229 2.07024 11.6533 2.19526 11.5283C2.32029 11.4032 2.48986 11.333 2.66667 11.333H21.3333C21.5101 11.333 21.6797 11.4032 21.8047 11.5283C21.9298 11.6533 22 11.8229 22 11.9997C22 12.1765 21.9298 12.3461 21.8047 12.4711C21.6797 12.5961 21.5101 12.6663 21.3333 12.6663Z" fill="white"/>
<path d="M21.3333 6.00033H2.66667C2.48986 6.00033 2.32029 5.93009 2.19526 5.80506C2.07024 5.68004 2 5.51047 2 5.33366C2 5.15685 2.07024 4.98728 2.19526 4.86225C2.32029 4.73723 2.48986 4.66699 2.66667 4.66699H21.3333C21.5101 4.66699 21.6797 4.73723 21.8047 4.86225C21.9298 4.98728 22 5.15685 22 5.33366C22 5.51047 21.9298 5.68004 21.8047 5.80506C21.6797 5.93009 21.5101 6.00033 21.3333 6.00033Z" fill="white"/>
</svg>
