<svg width="25" height="24" viewBox="0 0 25 24" fill="none" xmlns="http://www.w3.org/2000/svg">
<path d="M6.6347 3.4763C6.03656 3.70891 5.53072 4.01905 5.02489 4.52489C4.51905 5.02703 4.20891 5.53656 3.9763 6.13101C3.75107 6.707 3.59969 7.3679 3.55538 8.33527C3.51108 9.30263 3.5 9.61278 3.5 12.0792C3.5 14.5456 3.51108 14.8557 3.55538 15.8231C3.59969 16.7905 3.75476 17.4514 3.9763 18.0274C4.20891 18.6255 4.51905 19.1313 5.02489 19.6372C5.53072 20.143 6.03656 20.4532 6.6347 20.6858C7.21069 20.911 7.8716 21.0624 8.83896 21.1067C9.80632 21.151 10.1165 21.1621 12.5829 21.1621C15.0493 21.1621 15.3594 21.151 16.3268 21.1067C17.2942 21.0624 17.9551 20.9073 18.5311 20.6858C19.1292 20.4532 19.635 20.143 20.1409 19.6372C20.6467 19.1313 20.9568 18.6255 21.1895 18.0274C21.4147 17.4514 21.5661 16.7905 21.6104 15.8231C21.6547 14.8557 21.6658 14.5456 21.6658 12.0792C21.6658 9.61278 21.6547 9.30263 21.6104 8.33527C21.5661 7.3679 21.411 6.707 21.1895 6.13101C20.9568 5.53656 20.6467 5.02703 20.1446 4.52489C19.6387 4.01905 19.1329 3.70891 18.5347 3.4763C17.9588 3.25107 17.2979 3.09969 16.3305 3.05538C15.3631 3.01108 15.053 3 12.5866 3C10.1202 3 9.81002 3.01108 8.84265 3.05538C7.8716 3.096 7.21069 3.25107 6.6347 3.4763ZM16.2529 4.68735C17.1391 4.72796 17.6191 4.87565 17.9403 5.00119C18.3649 5.16734 18.6677 5.36303 18.9852 5.68056C19.3027 5.99809 19.4984 6.30085 19.6646 6.72546C19.7901 7.04668 19.9378 7.52667 19.9784 8.4128C20.0227 9.36909 20.0301 9.65708 20.0301 12.0829C20.0301 14.5087 20.019 14.7967 19.9784 15.753C19.9378 16.6391 19.7901 17.1191 19.6646 17.4403C19.4984 17.8649 19.3027 18.1677 18.9852 18.4852C18.6677 18.8027 18.3649 18.9984 17.9403 19.1646C17.6191 19.2901 17.1391 19.4378 16.2529 19.4784C15.2967 19.5227 15.0087 19.5301 12.5829 19.5301C10.1571 19.5301 9.86909 19.519 8.9128 19.4784C8.02667 19.4378 7.54668 19.2901 7.22546 19.1646C6.80085 18.9984 6.49809 18.8027 6.18056 18.4852C5.86303 18.1677 5.66734 17.8649 5.50119 17.4403C5.37565 17.1191 5.22796 16.6391 5.18735 15.753C5.14304 14.7967 5.13566 14.5087 5.13566 12.0829C5.13566 9.65708 5.14673 9.36909 5.18735 8.4128C5.22796 7.52667 5.37565 7.04668 5.50119 6.72546C5.66734 6.30085 5.86303 5.99809 6.18056 5.68056C6.49809 5.36303 6.80085 5.16734 7.22546 5.00119C7.54668 4.87565 8.02667 4.72796 8.9128 4.68735C9.86909 4.64304 10.1571 4.63566 12.5829 4.63566C15.0087 4.63566 15.2967 4.64304 16.2529 4.68735Z" fill="url(#paint0_linear_8404_6279)"/>
<path d="M7.92188 12.0832C7.92188 14.6604 10.0117 16.7465 12.5852 16.7465C15.1586 16.7465 17.2484 14.6567 17.2484 12.0832C17.2484 9.50972 15.1623 7.41992 12.5852 7.41992C10.008 7.41992 7.92188 9.50603 7.92188 12.0832ZM15.6128 12.0832C15.6128 13.7558 14.2577 15.1108 12.5852 15.1108C10.9126 15.1108 9.55753 13.7558 9.55753 12.0832C9.55753 10.4106 10.9126 9.05558 12.5852 9.05558C14.2577 9.05558 15.6128 10.4106 15.6128 12.0832Z" fill="url(#paint1_radial_8404_6279)"/>
<path d="M17.433 8.32392C18.0345 8.32392 18.5222 7.83627 18.5222 7.23471C18.5222 6.63316 18.0345 6.14551 17.433 6.14551C16.8314 6.14551 16.3438 6.63316 16.3438 7.23471C16.3438 7.83627 16.8314 8.32392 17.433 8.32392Z" fill="#9E3E97"/>
<defs>
<linearGradient id="paint0_linear_8404_6279" x1="12.5829" y1="3" x2="12.5829" y2="21.1621" gradientUnits="userSpaceOnUse">
<stop stop-color="#9E3E97"/>
<stop offset="0.25" stop-color="#F57D3B"/>
<stop offset="0.495" stop-color="#C93F70"/>
<stop offset="1" stop-color="#7F4CAE"/>
</linearGradient>
<radialGradient id="paint1_radial_8404_6279" cx="0" cy="0" r="1" gradientUnits="userSpaceOnUse" gradientTransform="translate(8.09103 15.8913) rotate(-3.00009) scale(13.4866 11.4635)">
<stop stop-color="#FED576"/>
<stop offset="0.2634" stop-color="#F47133"/>
<stop offset="0.6091" stop-color="#BC3081"/>
<stop offset="1" stop-color="#4C63D2"/>
</radialGradient>
</defs>
</svg>
