<svg width="20" height="20" viewBox="0 0 20 20" fill="none" xmlns="http://www.w3.org/2000/svg">
<path d="M12.4974 18.9587H7.4974C2.9724 18.9587 1.03906 17.0253 1.03906 12.5003V7.50033C1.03906 2.97533 2.9724 1.04199 7.4974 1.04199H12.4974C17.0224 1.04199 18.9557 2.97533 18.9557 7.50033V12.5003C18.9557 17.0253 17.0224 18.9587 12.4974 18.9587ZM7.4974 2.29199C3.65573 2.29199 2.28906 3.65866 2.28906 7.50033V12.5003C2.28906 16.342 3.65573 17.7087 7.4974 17.7087H12.4974C16.3391 17.7087 17.7057 16.342 17.7057 12.5003V7.50033C17.7057 3.65866 16.3391 2.29199 12.4974 2.29199H7.4974Z" fill="white"/>
<path d="M10.0026 13.5413C8.0526 13.5413 6.46094 11.9497 6.46094 9.99967C6.46094 8.04967 8.0526 6.45801 10.0026 6.45801C11.9526 6.45801 13.5443 8.04967 13.5443 9.99967C13.5443 11.9497 11.9526 13.5413 10.0026 13.5413ZM10.0026 7.70801C8.73594 7.70801 7.71094 8.73301 7.71094 9.99967C7.71094 11.2663 8.73594 12.2913 10.0026 12.2913C11.2693 12.2913 12.2943 11.2663 12.2943 9.99967C12.2943 8.73301 11.2693 7.70801 10.0026 7.70801Z" fill="white"/>
<path d="M14.1693 6.25041C14.0609 6.25041 13.9526 6.22541 13.8526 6.18374C13.7526 6.14207 13.6609 6.08374 13.5776 6.00874C13.5026 5.92541 13.4359 5.83374 13.3943 5.73374C13.3526 5.63374 13.3359 5.52541 13.3359 5.41707C13.3359 5.30874 13.3526 5.20041 13.3943 5.10041C13.4443 4.99207 13.5026 4.90874 13.5776 4.82541C13.6193 4.79208 13.6609 4.75041 13.7026 4.72541C13.7526 4.69208 13.8026 4.66708 13.8526 4.65041C13.9026 4.62541 13.9526 4.60874 14.0109 4.60041C14.2776 4.54208 14.5609 4.63374 14.7609 4.82541C14.8359 4.90874 14.8943 4.99207 14.9359 5.10041C14.9776 5.20041 15.0026 5.30874 15.0026 5.41707C15.0026 5.52541 14.9776 5.63374 14.9359 5.73374C14.8943 5.83374 14.8359 5.92541 14.7609 6.00874C14.6776 6.08374 14.5859 6.14207 14.4859 6.18374C14.3859 6.22541 14.2776 6.25041 14.1693 6.25041Z" fill="#292D32"/>
</svg>
