<svg width="18" height="18" viewBox="0 0 18 18" fill="none" xmlns="http://www.w3.org/2000/svg">
<path d="M13.0763 11.5276C12.9338 11.5276 12.7912 11.4751 12.6787 11.3626C12.4613 11.1451 12.4613 10.7851 12.6787 10.5676L14.2013 9.04508L12.6787 7.52258C12.4613 7.30508 12.4613 6.94508 12.6787 6.72758C12.8962 6.51008 13.2562 6.51008 13.4737 6.72758L15.3938 8.64758C15.6113 8.86508 15.6113 9.22508 15.3938 9.44258L13.4737 11.3626C13.3612 11.4751 13.2188 11.5276 13.0763 11.5276Z" fill="white"/>
<path d="M14.9478 9.60742H7.32031C7.01281 9.60742 6.75781 9.35242 6.75781 9.04492C6.75781 8.73742 7.01281 8.48242 7.32031 8.48242H14.9478C15.2553 8.48242 15.5103 8.73742 15.5103 9.04492C15.5103 9.35242 15.2553 9.60742 14.9478 9.60742Z" fill="white"/>
<path d="M8.82031 15.5625C4.95781 15.5625 2.25781 12.8625 2.25781 9C2.25781 5.1375 4.95781 2.4375 8.82031 2.4375C9.12781 2.4375 9.38281 2.6925 9.38281 3C9.38281 3.3075 9.12781 3.5625 8.82031 3.5625C5.61781 3.5625 3.38281 5.7975 3.38281 9C3.38281 12.2025 5.61781 14.4375 8.82031 14.4375C9.12781 14.4375 9.38281 14.6925 9.38281 15C9.38281 15.3075 9.12781 15.5625 8.82031 15.5625Z" fill="white"/>
</svg>
