<svg width="20" height="20" viewBox="0 0 20 20" fill="none" xmlns="http://www.w3.org/2000/svg">
<path d="M14.1641 17.7087H5.83073C2.78906 17.7087 1.03906 15.9587 1.03906 12.917V7.08366C1.03906 4.04199 2.78906 2.29199 5.83073 2.29199H14.1641C17.2057 2.29199 18.9557 4.04199 18.9557 7.08366V12.917C18.9557 15.9587 17.2057 17.7087 14.1641 17.7087ZM5.83073 3.54199C3.4474 3.54199 2.28906 4.70033 2.28906 7.08366V12.917C2.28906 15.3003 3.4474 16.4587 5.83073 16.4587H14.1641C16.5474 16.4587 17.7057 15.3003 17.7057 12.917V7.08366C17.7057 4.70033 16.5474 3.54199 14.1641 3.54199H5.83073Z" fill="white"/>
<path d="M9.99705 10.725C9.29705 10.725 8.58872 10.5083 8.04705 10.0666L5.43871 7.98331C5.17205 7.76664 5.12205 7.37497 5.33872 7.10831C5.55538 6.84164 5.94705 6.79164 6.21372 7.00831L8.82204 9.09164C9.45538 9.59998 10.5304 9.59998 11.1637 9.09164L13.772 7.00831C14.0387 6.79164 14.4387 6.83331 14.647 7.10831C14.8637 7.37497 14.8221 7.77498 14.5471 7.98331L11.9387 10.0666C11.4054 10.5083 10.697 10.725 9.99705 10.725Z" fill="white"/>
</svg>
