<svg width="18" height="18" viewBox="0 0 18 18" fill="none" xmlns="http://www.w3.org/2000/svg">
<path d="M9 1.5C10.7902 1.5 12.5071 2.21116 13.773 3.47703C15.0388 4.7429 15.75 6.45979 15.75 8.25C15.75 10.5555 14.493 12.4425 13.1685 13.7963C12.5068 14.4653 11.7847 15.0719 11.0115 15.6083L10.692 15.8258L10.542 15.9255L10.2592 16.1055L10.0073 16.2593L9.69525 16.4408C9.48348 16.5616 9.24384 16.6252 9 16.6252C8.75616 16.6252 8.51652 16.5616 8.30475 16.4408L7.99275 16.2593L7.60275 16.0192L7.45875 15.9255L7.15125 15.7208C6.31712 15.1564 5.54018 14.5118 4.8315 13.7963C3.507 12.4418 2.25 10.5555 2.25 8.25C2.25 6.45979 2.96116 4.7429 4.22703 3.47703C5.4929 2.21116 7.20979 1.5 9 1.5ZM9 6C8.70453 6 8.41194 6.0582 8.13896 6.17127C7.86598 6.28434 7.61794 6.45008 7.40901 6.65901C7.20008 6.86794 7.03434 7.11598 6.92127 7.38896C6.8082 7.66194 6.75 7.95453 6.75 8.25C6.75 8.54547 6.8082 8.83806 6.92127 9.11104C7.03434 9.38402 7.20008 9.63206 7.40901 9.84099C7.61794 10.0499 7.86598 10.2157 8.13896 10.3287C8.41194 10.4418 8.70453 10.5 9 10.5C9.59674 10.5 10.169 10.2629 10.591 9.84099C11.0129 9.41903 11.25 8.84674 11.25 8.25C11.25 7.65326 11.0129 7.08097 10.591 6.65901C10.169 6.23705 9.59674 6 9 6Z" fill="#F8FAFC"/>
</svg>
