<svg width="18" height="18" viewBox="0 0 18 18" fill="none" xmlns="http://www.w3.org/2000/svg">
<path d="M8.99625 10.6276C7.39875 10.6276 6.09375 9.33008 6.09375 7.72508C6.09375 6.12008 7.39875 4.83008 8.99625 4.83008C10.5938 4.83008 11.8988 6.12758 11.8988 7.73258C11.8988 9.33758 10.5938 10.6276 8.99625 10.6276ZM8.99625 5.95508C8.02125 5.95508 7.21875 6.75008 7.21875 7.73258C7.21875 8.71508 8.01375 9.51008 8.99625 9.51008C9.97875 9.51008 10.7738 8.71508 10.7738 7.73258C10.7738 6.75008 9.97125 5.95508 8.99625 5.95508Z" fill="white"/>
<path d="M9.00098 1.4375H9.00879C11.6327 1.43752 14.5847 2.97208 15.3535 6.36523C16.2073 10.1371 13.9357 13.3544 11.7529 15.4561C10.978 16.1976 9.98503 16.5703 9.00098 16.5703C8.0173 16.5702 7.02474 16.198 6.25 15.457H6.25098C4.13636 13.4213 1.93773 10.3316 2.58496 6.71094L2.65625 6.3584C3.42477 2.97276 6.3767 1.4376 9.00098 1.4375ZM9.00098 1.5625C6.74213 1.56259 3.78579 2.73674 2.86621 6.05664L2.7832 6.38477C1.91111 10.1919 4.31142 13.4104 6.34473 15.3604C7.83573 16.7989 10.174 16.7989 11.665 15.3604C13.6909 13.4104 16.0911 10.1915 15.2344 6.38477L15.2334 6.38281C14.4144 2.81287 11.3321 1.5625 9.00098 1.5625Z" fill="white" stroke="white"/>
</svg>
