<svg width="24" height="24" viewBox="0 0 24 24" fill="none" xmlns="http://www.w3.org/2000/svg">
<path d="M21.961 18.8552C21.8275 19.429 21.5126 19.9445 21.063 20.3252C20.5611 20.8357 19.962 21.2405 19.3011 21.5156C18.6402 21.7908 17.9308 21.9307 17.215 21.9272H16.857C15.3711 21.8498 13.9147 21.4822 12.57 20.8452C12.244 20.6922 11.927 20.5492 11.55 20.3752C9.97402 19.4852 8.52755 18.3833 7.25097 17.1002C5.59152 15.5439 4.23168 13.6963 3.23897 11.6492C2.69245 10.5325 2.32432 9.33698 2.14797 8.10624C1.9016 6.82374 2.04726 5.49676 2.56597 4.29824C2.88863 3.75413 3.28356 3.25626 3.73997 2.81824C3.94844 2.59082 4.20054 2.40766 4.48126 2.27968C4.76197 2.15169 5.06557 2.08148 5.37397 2.07324C5.71026 2.10879 6.03607 2.21113 6.33229 2.37426C6.6285 2.5374 6.88916 2.75804 7.09897 3.02324C7.56897 3.54324 8.11897 4.04324 8.61897 4.57324L9.26297 5.20724C9.64297 5.54024 9.87797 6.00924 9.91597 6.51324C9.91697 6.97724 9.74597 7.42424 9.43597 7.76924C9.24076 8.01116 9.03315 8.24281 8.81397 8.46324L8.59897 8.68824C8.47376 8.80459 8.37606 8.94739 8.31297 9.10624C8.26097 9.26024 8.24297 9.42424 8.26297 9.58624C8.42697 10.0302 8.68397 10.4342 9.01797 10.7702C9.53797 11.4742 10.038 12.0872 10.6 12.8122C11.5692 13.9306 12.7184 14.8793 14 15.6192C14.123 15.7192 14.27 15.7862 14.428 15.8132C14.568 15.8342 14.709 15.8132 14.836 15.7512C15.2254 15.5428 15.5718 15.2625 15.857 14.9252C16.217 14.4812 16.739 14.1992 17.307 14.1382C17.5796 14.1393 17.8493 14.1949 18.1001 14.3019C18.3508 14.4089 18.5776 14.5651 18.767 14.7612C19.0003 14.9626 19.2213 15.1769 19.43 15.4042L19.736 15.7312L20.053 16.0372C20.246 16.2312 20.43 16.4052 20.613 16.6092C20.9463 16.8959 21.2563 17.2056 21.543 17.5382C21.836 17.9122 21.984 18.3802 21.961 18.8552Z" fill="#E67225"/>
</svg>
