<svg width="18" height="18" viewBox="0 0 18 18" fill="none" xmlns="http://www.w3.org/2000/svg">
<path d="M16.4707 14.1412C16.3706 14.5715 16.1344 14.9581 15.7972 15.2437C15.4208 15.6265 14.9715 15.9301 14.4758 16.1365C13.9801 16.3428 13.4481 16.4478 12.9112 16.4452H12.6427C11.5283 16.3871 10.436 16.1114 9.42748 15.6337C9.18298 15.5189 8.94523 15.4117 8.66248 15.2812C7.48052 14.6137 6.39566 13.7872 5.43823 12.8249C4.19364 11.6577 3.17376 10.272 2.42923 8.73669C2.01934 7.89912 1.74324 7.00249 1.61098 6.07944C1.4262 5.11756 1.53544 4.12233 1.92448 3.22344C2.16647 2.81535 2.46267 2.44195 2.80498 2.11344C2.96133 1.94287 3.15041 1.8055 3.36094 1.70951C3.57148 1.61352 3.79917 1.56087 4.03048 1.55469C4.2827 1.58135 4.52705 1.6581 4.74921 1.78045C4.97138 1.9028 5.16687 2.06828 5.32423 2.26719C5.67673 2.65719 6.08923 3.03219 6.46423 3.42969L6.94723 3.90519C7.23223 4.15494 7.40848 4.50669 7.43698 4.88469C7.43773 5.23269 7.30948 5.56794 7.07698 5.82669C6.93057 6.00813 6.77486 6.18186 6.61048 6.34719L6.44923 6.51594C6.35532 6.6032 6.28204 6.7103 6.23473 6.82944C6.19573 6.94494 6.18223 7.06794 6.19723 7.18944C6.32023 7.52244 6.51298 7.82544 6.76348 8.07744C7.15348 8.60544 7.52848 9.06519 7.94998 9.60894C8.67693 10.4477 9.53877 11.1592 10.5 11.7142C10.5922 11.7892 10.7025 11.8394 10.821 11.8597C10.926 11.8754 11.0317 11.8597 11.127 11.8132C11.419 11.6569 11.6789 11.4467 11.8927 11.1937C12.1627 10.8607 12.5542 10.6492 12.9802 10.6034C13.1847 10.6042 13.387 10.6459 13.575 10.7262C13.7631 10.8064 13.9332 10.9236 14.0752 11.0707C14.2502 11.2217 14.416 11.3824 14.5725 11.5529L14.802 11.7982L15.0397 12.0277C15.1845 12.1732 15.3225 12.3037 15.4597 12.4567C15.7097 12.6717 15.9422 12.9039 16.1572 13.1534C16.377 13.4339 16.488 13.7849 16.4707 14.1412Z" fill="#F8FAFC"/>
</svg>
