<svg width="48" height="48" viewBox="0 0 48 48" fill="none" xmlns="http://www.w3.org/2000/svg">
<path fill-rule="evenodd" clip-rule="evenodd" d="M24 48C27.1517 48 30.2726 47.3792 33.1844 46.1731C36.0962 44.967 38.742 43.1992 40.9706 40.9706C43.1992 38.742 44.967 36.0962 46.1731 33.1844C47.3792 30.2726 48 27.1517 48 24C48 20.8483 47.3792 17.7274 46.1731 14.8156C44.967 11.9038 43.1992 9.25804 40.9706 7.02944C38.742 4.80083 36.0962 3.033 33.1844 1.82689C30.2726 0.620778 27.1517 -4.69644e-08 24 0C17.6348 9.48488e-08 11.5303 2.52856 7.02944 7.02944C2.52856 11.5303 0 17.6348 0 24C0 30.3652 2.52856 36.4697 7.02944 40.9706C11.5303 45.4714 17.6348 48 24 48ZM20.7547 13.3067L35.8053 21.6693C36.2208 21.9004 36.567 22.2382 36.8081 22.648C37.0491 23.0578 37.1762 23.5246 37.1762 24C37.1762 24.4754 37.0491 24.9422 36.8081 25.352C36.567 25.7618 36.2208 26.0997 35.8053 26.3307L20.7547 34.6933C20.2673 34.9642 19.7177 35.1031 19.1602 35.0961C18.6026 35.0892 18.0566 34.9367 17.5762 34.6538C17.0957 34.3708 16.6976 33.9673 16.4211 33.4831C16.1446 32.9989 15.9995 32.4509 16 31.8933V16.1067C15.9995 15.5491 16.1446 15.0011 16.4211 14.5169C16.6976 14.0327 17.0957 13.6292 17.5762 13.3462C18.0566 13.0633 18.6026 12.9108 19.1602 12.9039C19.7177 12.8969 20.2673 13.0358 20.7547 13.3067Z" fill="white"/>
</svg>
