<svg width="18" height="18" viewBox="0 0 18 18" fill="none" xmlns="http://www.w3.org/2000/svg">
<path fill-rule="evenodd" clip-rule="evenodd" d="M8.60225 1.28975C8.82192 1.07008 9.17808 1.07008 9.39775 1.28975L12.2102 4.10225C12.4299 4.32192 12.4299 4.67808 12.2102 4.89775C11.9906 5.11742 11.6344 5.11742 11.4148 4.89775L9.5625 3.0455V11.2852C9.5625 11.5958 9.31066 11.8477 9 11.8477C8.68934 11.8477 8.4375 11.5958 8.4375 11.2852V3.04549L6.58525 4.89775C6.36558 5.11742 6.00942 5.11742 5.78975 4.89775C5.57008 4.67808 5.57008 4.32192 5.78975 4.10225L8.60225 1.28975ZM4.78125 7.3125C4.55747 7.3125 4.34286 7.40139 4.18463 7.55963C4.02639 7.71786 3.9375 7.93247 3.9375 8.15625V14.9062C3.9375 15.13 4.02639 15.3446 4.18463 15.5029C4.34286 15.6611 4.55747 15.75 4.78125 15.75H13.2188C13.4425 15.75 13.6571 15.6611 13.8154 15.5029C13.9736 15.3446 14.0625 15.13 14.0625 14.9062V8.15625C14.0625 7.93247 13.9736 7.71786 13.8154 7.55963C13.6571 7.40139 13.4425 7.3125 13.2188 7.3125H11.8125C11.5018 7.3125 11.25 7.06066 11.25 6.75C11.25 6.43934 11.5018 6.1875 11.8125 6.1875H13.2188C13.7409 6.1875 14.2417 6.39492 14.6109 6.76413C14.9801 7.13335 15.1875 7.63411 15.1875 8.15625V14.9062C15.1875 15.4284 14.9801 15.9292 14.6109 16.2984C14.2417 16.6676 13.7409 16.875 13.2188 16.875H4.78125C4.2591 16.875 3.75835 16.6676 3.38913 16.2984C3.01992 15.9292 2.8125 15.4284 2.8125 14.9062V8.15625C2.8125 7.63411 3.01992 7.13335 3.38913 6.76413C3.75835 6.39492 4.2591 6.1875 4.78125 6.1875H6.1875C6.49816 6.1875 6.75 6.43934 6.75 6.75C6.75 7.06066 6.49816 7.3125 6.1875 7.3125H4.78125Z" fill="white"/>
</svg>
