<svg width="18" height="18" viewBox="0 0 18 18" fill="none" xmlns="http://www.w3.org/2000/svg">
<path fill-rule="evenodd" clip-rule="evenodd" d="M8.46954 2.481C8.17404 2.8665 7.84104 3.462 7.35654 4.3305L7.11129 4.77075L7.06704 4.85025C6.84204 5.25525 6.65079 5.59875 6.34404 5.83125C6.03429 6.06675 5.65629 6.1515 5.21679 6.2505L5.13129 6.27L4.65429 6.378C3.71304 6.591 3.07179 6.73725 2.63379 6.9105C2.20554 7.0785 2.11554 7.21725 2.08104 7.3275C2.04429 7.4445 2.04354 7.62375 2.29854 8.03025C2.55879 8.44275 2.99754 8.95725 3.63804 9.70725L3.96354 10.0875L4.01979 10.1527C4.32204 10.5052 4.57404 10.7993 4.68954 11.1713C4.80429 11.541 4.76604 11.9288 4.71954 12.3998L4.71204 12.4875L4.66254 12.9952C4.56504 13.9942 4.50054 14.6827 4.52229 15.1777C4.54479 15.6727 4.64904 15.8093 4.73229 15.8723C4.80579 15.9285 4.94229 15.99 5.38704 15.8625C5.83929 15.7335 6.44079 15.4582 7.32204 15.0525L7.76904 14.847L7.85079 14.8095C8.25954 14.6198 8.61354 14.4562 9.00054 14.4562C9.38754 14.4562 9.74154 14.6198 10.1503 14.8088C10.1768 14.8218 10.2043 14.8343 10.2328 14.8463L10.679 15.0525C11.5603 15.4582 12.1618 15.7335 12.614 15.8625C13.0588 15.99 13.1953 15.9285 13.2688 15.8723C13.352 15.8093 13.4563 15.672 13.4788 15.1777C13.5013 14.6827 13.4353 13.9942 13.3385 12.9952L13.289 12.4875L13.2815 12.3998C13.235 11.9288 13.1968 11.541 13.3115 11.1713C13.427 10.7993 13.679 10.5052 13.9813 10.1527L14.0375 10.0875L14.363 9.70725C15.0035 8.95725 15.4423 8.44275 15.7018 8.03025C15.9575 7.62375 15.9568 7.44525 15.92 7.3275C15.8855 7.21725 15.7955 7.0785 15.3673 6.9105C14.9285 6.73725 14.288 6.591 13.3468 6.378L12.8698 6.27L12.7843 6.2505C12.3448 6.1515 11.9668 6.06675 11.657 5.83125C11.3495 5.59875 11.1598 5.256 10.934 4.85025L10.8905 4.77075L10.6445 4.3305C10.16 3.462 9.82704 2.8665 9.53154 2.481C9.23604 2.0955 9.08604 2.0625 9.00054 2.0625C8.91504 2.0625 8.76429 2.0955 8.46954 2.481ZM7.57704 1.797C7.93329 1.3305 8.37504 0.9375 9.00054 0.9375C9.62604 0.9375 10.067 1.3305 10.4248 1.797C10.7758 2.256 11.1485 2.92425 11.6038 3.741L11.873 4.22325C12.167 4.75125 12.2428 4.86375 12.3373 4.93575C12.4273 5.004 12.545 5.043 13.1173 5.17275L13.6423 5.29125C14.5243 5.49075 15.251 5.655 15.7798 5.8635C16.3288 6.08025 16.8095 6.399 16.9948 6.99375C17.1778 7.5825 16.9723 8.124 16.6543 8.62875C16.3453 9.12 15.8518 9.6975 15.2488 10.4025L14.8925 10.8188C14.5048 11.2718 14.4238 11.3828 14.3855 11.505C14.3473 11.6303 14.3503 11.775 14.4095 12.3787L14.4628 12.9323C14.5543 13.8743 14.6285 14.6422 14.6023 15.2272C14.576 15.8235 14.441 16.395 13.9498 16.7685C13.4488 17.148 12.866 17.106 12.3035 16.944C11.7583 16.788 11.0788 16.4752 10.2538 16.095L9.76179 15.8685C9.22329 15.621 9.10854 15.5812 9.00054 15.5812C8.89254 15.5812 8.77779 15.621 8.23929 15.8685L7.74804 16.095C6.92229 16.4752 6.24279 16.788 5.69754 16.944C5.13504 17.1052 4.55229 17.148 4.05204 16.7685C3.56004 16.395 3.42504 15.8235 3.39879 15.228C3.37254 14.643 3.44679 13.8742 3.53829 12.933L3.59229 12.3787C3.65079 11.7742 3.65379 11.6303 3.61479 11.505C3.57729 11.3828 3.49629 11.2725 3.10854 10.8188L2.75229 10.4025C2.15004 9.6975 1.65654 9.12 1.34754 8.6295C1.02879 8.124 0.82329 7.5825 1.00629 6.99375C1.19154 6.399 1.67229 6.08025 2.22129 5.8635C2.75004 5.655 3.47679 5.49075 4.35879 5.29125L4.40604 5.28075L4.88304 5.17275C5.45604 5.043 5.57304 5.004 5.66379 4.935C5.75829 4.86375 5.83404 4.75125 6.12879 4.22325L6.39729 3.741C6.85254 2.9235 7.22529 2.256 7.57629 1.797" fill="white"/>
</svg>
