<svg width="20" height="20" viewBox="0 0 20 20" fill="none" xmlns="http://www.w3.org/2000/svg">
<path d="M6.86629 6.1166L1.54962 6.88744L1.45545 6.9066C1.3129 6.94445 1.18295 7.01944 1.07886 7.12394C0.974777 7.22843 0.900289 7.35868 0.863005 7.50137C0.82572 7.64407 0.826975 7.79411 0.866642 7.93616C0.906309 8.07822 0.982967 8.2072 1.08879 8.30994L4.94045 12.0591L4.03212 17.3549L4.02129 17.4466C4.01256 17.594 4.04317 17.7411 4.10999 17.8729C4.17681 18.0046 4.27744 18.1162 4.40157 18.1962C4.52569 18.2762 4.66886 18.3218 4.81641 18.3284C4.96396 18.3349 5.11059 18.3021 5.24129 18.2333L9.99629 15.7333L14.7405 18.2333L14.8238 18.2716C14.9613 18.3258 15.1108 18.3424 15.2569 18.3197C15.403 18.2971 15.5404 18.236 15.6551 18.1427C15.7698 18.0494 15.8576 17.9272 15.9095 17.7888C15.9614 17.6504 15.9755 17.5006 15.9505 17.3549L15.0413 12.0591L18.8946 8.3091L18.9596 8.23827C19.0525 8.12391 19.1133 7.98698 19.1361 7.84143C19.1588 7.69588 19.1425 7.54692 19.0889 7.40971C19.0352 7.2725 18.9462 7.15196 18.8309 7.06036C18.7155 6.96876 18.5779 6.90938 18.4321 6.88827L13.1155 6.1166L10.7388 1.29994C10.67 1.16038 10.5636 1.04286 10.4314 0.960689C10.2993 0.878514 10.1469 0.834961 9.99129 0.834961C9.83571 0.834961 9.68324 0.878514 9.55113 0.960689C9.41902 1.04286 9.31256 1.16038 9.24379 1.29994L6.86629 6.1166Z" fill="#F59E0B"/>
</svg>
