<svg width="20" height="20" viewBox="0 0 20 20" fill="none" xmlns="http://www.w3.org/2000/svg">
<path d="M9.99121 1.33496C10.0533 1.33496 10.1143 1.35209 10.167 1.38477C10.2197 1.41755 10.2625 1.46489 10.29 1.52051V1.52148L12.667 6.33789L12.7832 6.57324L13.0439 6.61133L18.3604 7.38281C18.4186 7.39125 18.4734 7.41558 18.5195 7.45215C18.5657 7.48879 18.6016 7.53692 18.623 7.5918C18.6445 7.64666 18.6507 7.70645 18.6416 7.76465C18.6327 7.8213 18.6088 7.87399 18.5732 7.91895L18.5303 7.96582L14.6924 11.7012L14.5039 11.8848L14.5488 12.1436L15.458 17.4395C15.468 17.4977 15.4622 17.5579 15.4414 17.6133C15.4207 17.6686 15.3857 17.7176 15.3398 17.7549C15.2941 17.7921 15.2389 17.8161 15.1807 17.8252C15.1238 17.834 15.0655 17.8279 15.0117 17.8076L14.9639 17.7861L10.2295 15.291L9.99609 15.168L9.76367 15.291L5.00879 17.791C4.95664 17.8185 4.89775 17.8316 4.83887 17.8291C4.78001 17.8265 4.72241 17.8082 4.67285 17.7764C4.6232 17.7444 4.58239 17.6992 4.55566 17.6465C4.5423 17.6201 4.53231 17.5922 4.52637 17.5635L4.52051 17.4766L4.52539 17.4395L5.43359 12.1436L5.47754 11.8848L5.28906 11.7012L1.4375 7.95117L1.38281 7.88281C1.36779 7.85762 1.35661 7.83025 1.34863 7.80176C1.33278 7.74499 1.33181 7.68496 1.34668 7.62793C1.36159 7.57085 1.39196 7.51836 1.43359 7.47656C1.47407 7.43606 1.52402 7.40608 1.5791 7.39062L1.63672 7.37891L6.93848 6.61133L7.19824 6.57324L7.31445 6.33789L9.69238 1.52148V1.52051C9.7199 1.46486 9.76271 1.41756 9.81543 1.38477C9.86817 1.35206 9.92915 1.33498 9.99121 1.33496Z" stroke="#F59E0B"/>
</svg>
