<svg width="18" height="18" viewBox="0 0 18 18" fill="none" xmlns="http://www.w3.org/2000/svg">
<path d="M12 5.25C12.825 5.25 13.5 5.925 13.5 6.75V14.25C13.5 15.075 12.825 15.75 12 15.75H6C5.175 15.75 4.5 15.075 4.5 14.25V6.75C4.5 5.925 5.175 5.25 6 5.25H12ZM6.75 6.75C6.3375 6.75 6 7.0875 6 7.5V13.5C6 13.9125 6.3375 14.25 6.75 14.25H11.25C11.6625 14.25 12 13.9125 12 13.5V7.5C12 7.0875 11.6625 6.75 11.25 6.75H6.75ZM10.5674 2.25C10.7624 2.25 10.9578 2.33277 11.0928 2.46777L11.625 3H13.5C13.9125 3 14.25 3.3375 14.25 3.75C14.25 4.1625 13.9125 4.5 13.5 4.5H4.5C4.0875 4.5 3.75 4.1625 3.75 3.75C3.75 3.3375 4.0875 3 4.5 3H6.375L6.90723 2.46777C7.04223 2.33277 7.23762 2.25 7.43262 2.25H10.5674Z" fill="#F8FAFC"/>
</svg>
