<svg width="24" height="24" viewBox="0 0 24 24" fill="none" xmlns="http://www.w3.org/2000/svg">
<path d="M19.5492 10.9976C19.0942 9.97354 18.4328 9.05437 17.6063 8.29763L16.9242 7.67185C16.9011 7.65118 16.8732 7.63652 16.843 7.62914C16.8129 7.62176 16.7814 7.6219 16.7513 7.62953C16.7212 7.63717 16.6935 7.65207 16.6705 7.67294C16.6475 7.6938 16.63 7.71998 16.6195 7.74919L16.3148 8.62341C16.125 9.17185 15.7758 9.732 15.2812 10.2828C15.2484 10.3179 15.2109 10.3273 15.1852 10.3297C15.1594 10.332 15.1195 10.3273 15.0844 10.2945C15.0516 10.2664 15.0352 10.2242 15.0375 10.182C15.1242 8.77107 14.7023 7.17966 13.7789 5.44763C13.0148 4.00857 11.9531 2.88591 10.6266 2.1031L9.65859 1.53357C9.53203 1.45857 9.37031 1.557 9.37734 1.70466L9.42891 2.82966C9.46406 3.59841 9.375 4.2781 9.16406 4.84294C8.90625 5.53435 8.53594 6.17653 8.0625 6.7531C7.73302 7.15379 7.35959 7.51622 6.94922 7.83357C5.96087 8.59333 5.15722 9.56685 4.59844 10.6812C4.04103 11.8053 3.75068 13.0429 3.75 14.2976C3.75 15.4039 3.96797 16.475 4.39922 17.4851C4.81562 18.4577 5.41654 19.3404 6.16875 20.0843C6.92813 20.8343 7.80938 21.425 8.79141 21.8351C9.80859 22.2617 10.8867 22.4773 12 22.4773C13.1133 22.4773 14.1914 22.2617 15.2086 21.8375C16.1882 21.4297 17.079 20.8351 17.8312 20.0867C18.5906 19.3367 19.1859 18.4601 19.6008 17.4875C20.0314 16.4801 20.2523 15.3955 20.25 14.3C20.25 13.1562 20.0156 12.0453 19.5492 10.9976Z" fill="#E67225"/>
</svg>
