<svg width="24" height="24" viewBox="0 0 24 24" fill="none" xmlns="http://www.w3.org/2000/svg">
<path d="M19.5492 10.9967C19.0942 9.97256 18.4328 9.0534 17.6063 8.29665L16.9242 7.67087C16.9011 7.65021 16.8732 7.63554 16.843 7.62816C16.8129 7.62078 16.7814 7.62092 16.7513 7.62856C16.7212 7.63619 16.6935 7.6511 16.6705 7.67196C16.6475 7.69282 16.63 7.71901 16.6195 7.74821L16.3148 8.62243C16.125 9.17087 15.7758 9.73103 15.2812 10.2818C15.2484 10.317 15.2109 10.3263 15.1852 10.3287C15.1594 10.331 15.1195 10.3263 15.0844 10.2935C15.0516 10.2654 15.0352 10.2232 15.0375 10.181C15.1242 8.77009 14.7023 7.17868 13.7789 5.44665C13.0148 4.00759 11.9531 2.88493 10.6266 2.10212L9.65859 1.53259C9.53203 1.45759 9.37031 1.55603 9.37734 1.70368L9.42891 2.82868C9.46406 3.59743 9.375 4.27712 9.16406 4.84196C8.90625 5.53337 8.53594 6.17556 8.0625 6.75212C7.73302 7.15282 7.35959 7.51524 6.94922 7.83259C5.96087 8.59235 5.15722 9.56587 4.59844 10.6802C4.04103 11.8043 3.75068 13.0419 3.75 14.2967C3.75 15.4029 3.96797 16.474 4.39922 17.4842C4.81562 18.4567 5.41654 19.3394 6.16875 20.0834C6.92813 20.8334 7.80938 21.424 8.79141 21.8342C9.80859 22.2607 10.8867 22.4763 12 22.4763C13.1133 22.4763 14.1914 22.2607 15.2086 21.8365C16.1882 21.4287 17.079 20.8341 17.8312 20.0857C18.5906 19.3357 19.1859 18.4592 19.6008 17.4865C20.0314 16.4791 20.2523 15.3946 20.25 14.299C20.25 13.1552 20.0156 12.0443 19.5492 10.9967ZM16.7109 18.949C15.4523 20.1959 13.7812 20.8802 12 20.8802C10.2188 20.8802 8.54766 20.1959 7.28906 18.949C6.03516 17.7045 5.34375 16.0545 5.34375 14.299C5.34375 13.2795 5.57344 12.3021 6.02578 11.3927C6.46641 10.5045 7.12266 9.70993 7.91953 9.09822C8.42775 8.70961 8.8887 8.26281 9.29297 7.76696C9.87891 7.05212 10.3383 6.25525 10.657 5.39978C10.7878 5.0469 10.8828 4.68179 10.9406 4.30993C11.5055 4.83025 11.9789 5.45837 12.375 6.19431C13.1578 7.6615 13.5187 8.96696 13.4484 10.0779C13.4316 10.3395 13.4744 10.6016 13.5734 10.8444C13.6725 11.0871 13.8253 11.3043 14.0203 11.4795C14.1893 11.6322 14.387 11.7497 14.6019 11.8254C14.8167 11.901 15.0445 11.9332 15.2719 11.9201C15.7336 11.8967 16.1578 11.6927 16.4672 11.3482C16.7789 10.999 17.0484 10.6427 17.2734 10.2795C17.6016 10.699 17.8758 11.156 18.0938 11.6482C18.4664 12.4873 18.6562 13.3802 18.6562 14.299C18.6562 16.0545 17.9648 17.7068 16.7109 18.949Z" fill="white"/>
</svg>
