<svg width="44" height="39" viewBox="0 0 44 39" fill="none" xmlns="http://www.w3.org/2000/svg">
<path d="M29.4922 3.58105C29.833 3.58105 30.1104 3.8573 30.1104 4.19824C30.1103 4.5391 29.833 4.81445 29.4922 4.81445C26.8852 4.81447 24.5454 6.55298 23.8027 9.04004C23.7157 9.33333 23.4292 9.51211 23.1338 9.47461L23.127 9.4834L23.0342 9.45605C22.7074 9.3589 22.5203 9.01544 22.6182 8.68848C23.4973 5.74357 26.2348 3.58107 29.4922 3.58105Z" fill="#40B0E4" stroke="#787676" stroke-width="0.3"/>
<path d="M36.0427 27.064H33.2343C32.9758 27.064 32.7662 26.855 32.7662 26.5973C32.7662 26.3397 32.9758 26.1307 33.2343 26.1307H36.0427C39.9141 26.1307 43.064 22.9905 43.064 19.1311C43.064 15.2716 39.9141 12.1314 36.0427 12.1314H35.9752C35.8395 12.1314 35.7104 12.0728 35.6215 11.9705C35.5325 11.8681 35.4924 11.7325 35.5118 11.5985C35.5536 11.3078 35.5747 11.0158 35.5747 10.7315C35.5747 7.38671 32.8447 4.66515 29.4895 4.66515C28.1843 4.66515 26.9395 5.07179 25.8896 5.84141C25.6589 6.0104 25.3313 5.93541 25.1979 5.68241C22.2245 0.0380716 14.4585 -0.719906 10.4323 4.19018C8.73616 6.25872 8.06974 8.94957 8.60375 11.5722C8.6626 11.8618 8.44025 12.1318 8.14503 12.1318H7.95746C4.08611 12.1318 0.936212 15.272 0.936212 19.1314C0.936212 22.9909 4.08611 26.131 7.95746 26.131H10.7659C11.0244 26.131 11.234 26.34 11.234 26.5977C11.234 26.8553 11.0244 27.0643 10.7659 27.0643H7.95746C3.56981 27.0643 0 23.5055 0 19.1314C0 14.88 3.37218 11.3988 7.59001 11.2068C7.19381 8.48591 7.95144 5.74139 9.7074 3.59955C14.0181 -1.65782 22.2792 -1.06854 25.7714 4.79381C26.8855 4.09751 28.1603 3.73224 29.4894 3.73224C33.5544 3.73224 36.7755 7.1814 36.4936 11.2112C40.6726 11.4448 44 14.9076 44 19.131C44 23.5055 40.4302 27.064 36.0425 27.064L36.0427 27.064Z" fill="#40B0E4"/>
<path d="M21.9365 14.5176C28.4715 14.5176 33.789 19.818 33.7891 26.334C33.7891 32.85 28.4716 38.1504 21.9365 38.1504C15.4016 38.1503 10.084 32.85 10.084 26.334C10.0841 19.8181 15.4015 14.5176 21.9365 14.5176ZM21.9365 15.752C16.0827 15.752 11.3204 20.4995 11.3203 26.334C11.3203 32.1687 16.0828 36.917 21.9365 36.917C27.7903 36.917 32.5527 32.1686 32.5527 26.334C32.5526 20.4993 27.7903 15.752 21.9365 15.752Z" fill="#40B0E4" stroke="#787676" stroke-width="0.3"/>
<path d="M22.1475 21.6553C22.419 21.6553 22.6396 21.8756 22.6396 22.1475V31.0303C22.6394 31.3023 22.4188 31.5214 22.1475 31.5215C21.876 31.5215 21.6545 31.302 21.6543 31.0303V22.1475C21.6543 21.8756 21.8758 21.6553 22.1475 21.6553Z" fill="#40B0E4" stroke="#40B0E4" stroke-width="0.3"/>
<path d="M21.7988 21.8008C21.9911 21.6089 22.3028 21.609 22.4951 21.8008L25.2363 24.5332C25.429 24.7253 25.429 25.0374 25.2363 25.2295C25.1401 25.3255 25.0137 25.3729 24.8887 25.373C24.7631 25.373 24.6361 25.3252 24.54 25.2295L22.1465 22.8428L19.7539 25.2295C19.5616 25.4215 19.249 25.4213 19.0566 25.2295C18.864 25.0374 18.864 24.7253 19.0566 24.5332L21.7988 21.8008Z" fill="#40B0E4" stroke="#40B0E4" stroke-width="0.3"/>
</svg>
