<svg width="18" height="18" viewBox="0 0 18 18" fill="none" xmlns="http://www.w3.org/2000/svg">
<path d="M9.00195 1.4375C10.8125 1.43754 12.2987 2.86765 12.3896 4.65625L12.3945 4.83008C12.387 6.67069 10.9476 8.15614 9.12793 8.21484H9.09277C9.03853 8.20894 8.98411 8.21035 8.93262 8.21387C7.02947 8.14986 5.60942 6.66124 5.60938 4.83008C5.60938 2.96122 7.1331 1.4375 9.00195 1.4375ZM9.00195 1.5625C7.20331 1.5625 5.73438 3.03144 5.73438 4.83008C5.73442 6.59947 7.11774 8.02769 8.87891 8.08984L8.9375 8.0918L8.97168 8.08398C8.97708 8.08381 8.98458 8.08399 8.99414 8.08398C9.02418 8.08398 9.06235 8.08608 9.09863 8.08887L9.12891 8.09082L9.16016 8.08984C10.8984 8.00986 12.2605 6.58135 12.2695 4.83301V4.83008C12.2695 3.03146 10.8006 1.56254 9.00195 1.5625Z" stroke="white"/>
<path d="M9.13063 16.9125C7.66063 16.9125 6.18313 16.5375 5.06563 15.7875C4.02313 15.0975 3.45312 14.1525 3.45312 13.125C3.45312 12.0975 4.02313 11.145 5.06563 10.4475C7.31563 8.955 10.9606 8.955 13.1956 10.4475C14.2306 11.1375 14.8081 12.0825 14.8081 13.11C14.8081 14.1375 14.2381 15.09 13.1956 15.7875C12.0706 16.5375 10.6006 16.9125 9.13063 16.9125ZM5.68813 11.3925C4.96813 11.8725 4.57812 12.4875 4.57812 13.1325C4.57812 13.77 4.97563 14.385 5.68813 14.8575C7.55563 16.11 10.7056 16.11 12.5731 14.8575C13.2931 14.3775 13.6831 13.7625 13.6831 13.1175C13.6831 12.48 13.2856 11.865 12.5731 11.3925C10.7056 10.1475 7.55563 10.1475 5.68813 11.3925Z" fill="white"/>
</svg>
