<svg width="25" height="24" viewBox="0 0 25 24" fill="none" xmlns="http://www.w3.org/2000/svg">
<path d="M17.2203 14.0602C16.9648 13.9289 15.6922 13.3055 15.4555 13.2211C15.2187 13.132 15.0453 13.0898 14.8742 13.3523C14.7008 13.6125 14.2086 14.1914 14.0539 14.3672C13.9039 14.5406 13.7516 14.5617 13.4961 14.4328C11.9773 13.6734 10.9812 13.0781 9.98047 11.3602C9.71562 10.9031 10.2453 10.9359 10.7398 9.94922C10.8242 9.77578 10.782 9.62813 10.7164 9.49688C10.6508 9.36563 10.1352 8.09531 9.91953 7.57734C9.71094 7.07344 9.49531 7.14375 9.33828 7.13437C9.18828 7.125 9.01719 7.125 8.84375 7.125C8.67031 7.125 8.39141 7.19063 8.15469 7.44609C7.91797 7.70625 7.25 8.33203 7.25 9.60234C7.25 10.8727 8.17578 12.1031 8.30234 12.2766C8.43359 12.45 10.1234 15.0563 12.718 16.1789C14.3586 16.8867 15.0008 16.9477 15.8211 16.8258C16.3203 16.7508 17.3492 16.2023 17.5625 15.5953C17.7758 14.9906 17.7758 14.4727 17.7125 14.3648C17.6492 14.25 17.4758 14.1844 17.2203 14.0602Z" fill="#1ABB0C"/>
<path d="M22.1845 7.93125C21.6548 6.67266 20.8954 5.54297 19.9275 4.57266C18.9595 3.60469 17.8298 2.84297 16.5689 2.31563C15.2798 1.77422 13.9111 1.5 12.5001 1.5H12.4533C11.0329 1.50703 9.65716 1.78828 8.36341 2.34141C7.1142 2.87578 5.99388 3.63516 5.03529 4.60312C4.0767 5.57109 3.32435 6.69609 2.80404 7.95C2.26498 9.24844 1.9931 10.6289 2.00013 12.0492C2.00716 13.6758 2.39623 15.2906 3.12513 16.7344V20.2969C3.12513 20.8922 3.60795 21.375 4.20326 21.375H7.7681C9.21185 22.1039 10.8267 22.493 12.4533 22.5H12.5025C13.9064 22.5 15.2681 22.2281 16.5501 21.6961C17.804 21.1734 18.9314 20.4234 19.897 19.4648C20.865 18.5063 21.6267 17.3859 22.1587 16.1367C22.7119 14.843 22.9931 13.4672 23.0001 12.0469C23.0072 10.6195 22.7306 9.23438 22.1845 7.93125ZM18.6431 18.1969C17.0001 19.8234 14.8204 20.7188 12.5001 20.7188H12.4603C11.047 20.7117 9.6431 20.3602 8.40326 19.6992L8.20638 19.5938H4.90638V16.2938L4.80091 16.0969C4.13998 14.857 3.78841 13.4531 3.78138 12.0398C3.77201 9.70312 4.66498 7.50937 6.30326 5.85703C7.9392 4.20469 10.1259 3.29062 12.4626 3.28125H12.5025C13.6744 3.28125 14.8111 3.50859 15.8822 3.95859C16.9275 4.39687 17.865 5.02734 18.6712 5.83359C19.4751 6.6375 20.1079 7.57734 20.5462 8.62266C21.0009 9.70547 21.2283 10.8539 21.2236 12.0398C21.2095 14.3742 20.2931 16.5609 18.6431 18.1969Z" fill="#1ABB0C"/>
</svg>
