<svg width="18" height="18" viewBox="0 0 18 18" fill="none" xmlns="http://www.w3.org/2000/svg">
<path d="M16.4722 14.1412C16.3721 14.5715 16.1359 14.9581 15.7987 15.2437C15.4223 15.6265 14.9729 15.9301 14.4773 16.1365C13.9816 16.3428 13.4496 16.4478 12.9127 16.4452H12.6442C11.5298 16.3871 10.4375 16.1114 9.42894 15.6337C9.18444 15.5189 8.94669 15.4117 8.66394 15.2812C7.48198 14.6137 6.39713 13.7872 5.43969 12.8249C4.1951 11.6577 3.17522 10.272 2.43069 8.73669C2.0208 7.89912 1.7447 7.00249 1.61244 6.07944C1.42766 5.11756 1.53691 4.12233 1.92594 3.22344C2.16794 2.81535 2.46414 2.44195 2.80644 2.11344C2.9628 1.94287 3.15187 1.8055 3.36241 1.70951C3.57294 1.61352 3.80064 1.56087 4.03194 1.55469C4.28416 1.58135 4.52852 1.6581 4.75068 1.78045C4.97284 1.9028 5.16833 2.06828 5.32569 2.26719C5.67819 2.65719 6.09069 3.03219 6.46569 3.42969L6.94869 3.90519C7.23369 4.15494 7.40994 4.50669 7.43844 4.88469C7.43919 5.23269 7.31094 5.56794 7.07844 5.82669C6.93204 6.00813 6.77633 6.18186 6.61194 6.34719L6.45069 6.51594C6.35678 6.6032 6.28351 6.7103 6.23619 6.82944C6.19719 6.94494 6.18369 7.06794 6.19869 7.18944C6.32169 7.52244 6.51444 7.82544 6.76494 8.07744C7.15494 8.60544 7.52994 9.06519 7.95144 9.60894C8.6784 10.4477 9.54024 11.1592 10.5014 11.7142C10.5937 11.7892 10.7039 11.8394 10.8224 11.8597C10.9274 11.8754 11.0332 11.8597 11.1284 11.8132C11.4205 11.6569 11.6803 11.4467 11.8942 11.1937C12.1642 10.8607 12.5557 10.6492 12.9817 10.6034C13.1862 10.6042 13.3884 10.6459 13.5765 10.7262C13.7646 10.8064 13.9347 10.9236 14.0767 11.0707C14.2517 11.2217 14.4174 11.3824 14.5739 11.5529L14.8034 11.7982L15.0412 12.0277C15.1859 12.1732 15.3239 12.3037 15.4612 12.4567C15.7112 12.6717 15.9437 12.9039 16.1587 13.1534C16.3784 13.4339 16.4894 13.7849 16.4722 14.1412Z" fill="#FBC015"/>
</svg>
