<svg width="25" height="24" viewBox="0 0 25 24" fill="none" xmlns="http://www.w3.org/2000/svg">
<path d="M24.2148 12C24.2148 17.9897 19.8264 22.9542 14.0898 23.8542V15.4688H16.8859L17.418 12H14.0898V9.74906C14.0898 8.79984 14.5548 7.875 16.0455 7.875H17.5586V4.92188C17.5586 4.92188 16.1852 4.6875 14.8722 4.6875C12.1314 4.6875 10.3398 6.34875 10.3398 9.35625V12H7.29297V15.4688H10.3398V23.8542C4.60328 22.9542 0.214844 17.9897 0.214844 12C0.214844 5.37281 5.58766 0 12.2148 0C18.842 0 24.2148 5.37281 24.2148 12Z" fill="#1877F2"/>
<path d="M16.8859 15.4688L17.418 12H14.0898V9.74902C14.0898 8.80003 14.5547 7.875 16.0454 7.875H17.5586V4.92188C17.5586 4.92188 16.1853 4.6875 14.8724 4.6875C12.1314 4.6875 10.3398 6.34875 10.3398 9.35625V12H7.29297V15.4688H10.3398V23.8542C10.9508 23.95 11.577 24 12.2148 24C12.8527 24 13.4789 23.95 14.0898 23.8542V15.4688H16.8859Z" fill="white"/>
</svg>
