<svg width="25" height="25" viewBox="0 0 25 25" fill="none" xmlns="http://www.w3.org/2000/svg">
<path d="M24.2852 13C24.2852 6.37258 18.9126 1 12.2852 1C5.65774 1 0.285156 6.37258 0.285156 13C0.285156 19.6274 5.65774 25 12.2852 25C18.9126 25 24.2852 19.6274 24.2852 13Z" fill="url(#paint0_linear_9918_18281)"/>
<path opacity="0.1" d="M21.3166 5.10355C19.5671 8.31513 17.0929 11.6278 14.0013 14.7193C10.9098 17.8109 7.59713 20.2804 4.39029 22.0299C4.18923 21.8551 3.99397 21.673 3.8045 21.4836C2.65922 20.3765 1.7458 19.0525 1.1175 17.5888C0.489203 16.1251 0.1586 14.551 0.144971 12.9581C0.131341 11.3653 0.434957 9.78577 1.03811 8.31152C1.64127 6.83727 2.5319 5.49785 3.65807 4.37137C4.78423 3.24489 6.1234 2.35389 7.59748 1.75032C9.07156 1.14675 10.6511 0.842695 12.2439 0.85588C13.8367 0.869065 15.4109 1.19923 16.8748 1.82712C18.3387 2.45501 19.6629 3.36806 20.7703 4.51302C20.9598 4.7025 21.1419 4.89934 21.3166 5.10355Z" fill="white"/>
<path d="M15.1266 6.68359H9.44243C8.52116 6.68359 7.63761 7.04957 6.98617 7.70101C6.33473 8.35245 5.96875 9.236 5.96875 10.1573V15.8415C5.96875 16.7628 6.33473 17.6463 6.98617 18.2978C7.63761 18.9492 8.52116 19.3152 9.44243 19.3152H15.1266C16.0479 19.3152 16.9315 18.9492 17.5829 18.2978C18.2344 17.6463 18.6003 16.7628 18.6003 15.8415V10.1573C18.6003 9.236 18.2344 8.35245 17.5829 7.70101C16.9315 7.04957 16.0479 6.68359 15.1266 6.68359ZM17.4951 15.3425C17.4951 16.103 17.193 16.8323 16.6552 17.3701C16.1175 17.9078 15.3882 18.2099 14.6277 18.2099H9.94138C9.18091 18.2099 8.45158 17.9078 7.91385 17.3701C7.37611 16.8323 7.07401 16.103 7.07401 15.3425V10.6562C7.07401 9.89575 7.37611 9.16643 7.91385 8.62869C8.45158 8.09095 9.18091 7.78886 9.94138 7.78886H14.6277C15.3882 7.78886 16.1175 8.09095 16.6552 8.62869C17.193 9.16643 17.4951 9.89575 17.4951 10.6562V15.3425Z" fill="white"/>
<path d="M14.5881 10.7181L14.5581 10.6881L14.5328 10.6628C13.9358 10.0679 13.1272 9.73398 12.2844 9.73438C11.8588 9.73727 11.4379 9.82399 11.0458 9.98959C10.6537 10.1552 10.2981 10.3964 9.99925 10.6995C9.70042 11.0026 9.46424 11.3616 9.30419 11.756C9.14414 12.1504 9.06337 12.5724 9.06649 12.9981C9.06585 13.8618 9.40633 14.6909 10.0139 15.3049C10.3114 15.6061 10.666 15.845 11.057 16.0077C11.4479 16.1703 11.8673 16.2535 12.2907 16.2523C12.9258 16.239 13.5433 16.0411 14.0679 15.6829C14.5925 15.3246 15.0016 14.8215 15.2451 14.2348C15.4887 13.648 15.5562 13.0031 15.4396 12.3787C15.3229 11.7543 15.027 11.1773 14.5881 10.7181ZM12.2844 15.1391C11.8597 15.1451 11.4428 15.0246 11.0868 14.793C10.7308 14.5613 10.4517 14.2291 10.2851 13.8384C10.1184 13.4477 10.0717 13.0163 10.1509 12.5991C10.2301 12.1818 10.4316 11.7975 10.7298 11.495C11.028 11.1926 11.4094 10.9857 11.8255 10.9006C12.2417 10.8155 12.6737 10.8561 13.0667 11.0173C13.4596 11.1784 13.7958 11.4528 14.0324 11.8055C14.269 12.1582 14.3954 12.5733 14.3954 12.9981C14.3975 13.2773 14.3446 13.5542 14.2396 13.8129C14.1346 14.0717 13.9796 14.3072 13.7836 14.506C13.5875 14.7049 13.3542 14.8631 13.097 14.9718C12.8397 15.0804 12.5636 15.1373 12.2844 15.1391Z" fill="white"/>
<path d="M16.4595 9.58618C16.4603 9.6875 16.4412 9.78799 16.4031 9.8819C16.3651 9.97581 16.3089 10.0613 16.2377 10.1334C16.1666 10.2056 16.0819 10.263 15.9886 10.3024C15.8952 10.3418 15.795 10.3624 15.6937 10.363C15.5932 10.363 15.4938 10.343 15.4011 10.3042C15.3084 10.2655 15.2243 10.2087 15.1537 10.1372C15.0467 10.0287 14.974 9.89117 14.9444 9.74167C14.9149 9.59217 14.9299 9.4373 14.9876 9.29625C15.0452 9.15519 15.143 9.03417 15.2688 8.94818C15.3946 8.86219 15.5429 8.81501 15.6953 8.8125C15.8736 8.81247 16.0463 8.87505 16.1832 8.98934L16.199 9.00513C16.2244 9.02586 16.2477 9.04914 16.2684 9.07461L16.2858 9.09355C16.3988 9.23279 16.4602 9.40685 16.4595 9.58618Z" fill="white"/>
<defs>
<linearGradient id="paint0_linear_9918_18281" x1="3.79989" y1="4.51474" x2="20.7704" y2="21.4853" gradientUnits="userSpaceOnUse">
<stop stop-color="#FAE100"/>
<stop offset="0.15" stop-color="#FCB720"/>
<stop offset="0.3" stop-color="#FF7950"/>
<stop offset="0.5" stop-color="#FF1C74"/>
<stop offset="1" stop-color="#6C1CD1"/>
</linearGradient>
</defs>
</svg>
