<svg width="25" height="24" viewBox="0 0 25 24" fill="none" xmlns="http://www.w3.org/2000/svg">
<path d="M12.6406 24C19.268 24 24.6406 18.6274 24.6406 12C24.6406 5.37258 19.268 0 12.6406 0C6.01321 0 0.640625 5.37258 0.640625 12C0.640625 18.6274 6.01321 24 12.6406 24Z" fill="#0B69C7"/>
<path d="M9.95758 7.63737C9.95789 7.96166 9.862 8.27875 9.68203 8.54851C9.50206 8.81828 9.24611 9.02859 8.94656 9.15284C8.64702 9.27708 8.31735 9.30967 7.99928 9.24648C7.68121 9.18329 7.38903 9.02716 7.15972 8.79786C6.93042 8.56855 6.77429 8.27637 6.7111 7.9583C6.64791 7.64023 6.6805 7.31056 6.80475 7.01102C6.92899 6.71148 7.1393 6.45552 7.40907 6.27556C7.67884 6.09559 7.99593 5.99969 8.32021 6C8.75434 6.00042 9.17057 6.17306 9.47755 6.48004C9.78452 6.78701 9.95716 7.20324 9.95758 7.63737Z" fill="white"/>
<path d="M9.18078 9.95703H7.45657C7.23246 9.95703 7.05078 10.1387 7.05078 10.3628V17.5928C7.05078 17.8169 7.23246 17.9986 7.45657 17.9986H9.18078C9.40489 17.9986 9.58657 17.8169 9.58657 17.5928V10.3628C9.58657 10.1387 9.40489 9.95703 9.18078 9.95703Z" fill="white"/>
<path d="M18.6031 14.1267V17.6272C18.6031 17.726 18.5638 17.8208 18.494 17.8907C18.4241 17.9606 18.3293 17.9998 18.2305 17.9998H16.3799C16.2811 17.9998 16.1863 17.9606 16.1165 17.8907C16.0466 17.8208 16.0073 17.726 16.0073 17.6272V14.2356C16.0073 13.7288 16.1542 12.0251 14.6842 12.0251C13.5442 12.0251 13.3121 13.1967 13.2631 13.7225V17.6351C13.2611 17.732 13.2213 17.8243 13.1523 17.8924C13.0834 17.9605 12.9906 17.999 12.8936 17.9998H11.1031C11.0541 18.0001 11.0056 17.9906 10.9603 17.9719C10.915 17.9533 10.8738 17.9258 10.8391 17.8912C10.8045 17.8565 10.7771 17.8154 10.7584 17.7701C10.7398 17.7248 10.7303 17.6762 10.7305 17.6272V10.3325C10.7303 10.2834 10.7397 10.2348 10.7584 10.1894C10.777 10.144 10.8044 10.1027 10.8391 10.068C10.8737 10.0332 10.9148 10.0056 10.9601 9.98678C11.0055 9.96796 11.054 9.95827 11.1031 9.95827H12.8936C12.9433 9.95743 12.9926 9.96649 13.0388 9.98492C13.0849 10.0033 13.1269 10.0308 13.1623 10.0656C13.1978 10.1004 13.2259 10.142 13.2451 10.1878C13.2643 10.2336 13.2742 10.2828 13.2742 10.3325V10.9641C13.6973 10.3325 14.3257 9.83984 15.6631 9.83984C18.6205 9.83827 18.6031 12.6062 18.6031 14.1267Z" fill="white"/>
</svg>
