<svg width="24" height="24" viewBox="0 0 24 24" fill="none" xmlns="http://www.w3.org/2000/svg">
<path d="M12 24C18.6264 24 24 18.6264 24 12C24 5.3736 18.6264 0 12 0C5.3736 0 0 5.3736 0 12C0 18.6264 5.3736 24 12 24Z" fill="#FFFC00"/>
<mask id="mask0_9918_18255" style="mask-type:luminance" maskUnits="userSpaceOnUse" x="5" y="5" width="14" height="14">
<path d="M5.58594 5.97656H18.4187V18.0246H5.58594V5.97656Z" fill="white"/>
</mask>
<g mask="url(#mask0_9918_18255)">
<path d="M12.0758 17.8832C12.0422 17.8832 12.011 17.8832 11.9822 17.8784C11.9606 17.8784 11.939 17.8832 11.9174 17.8832C11.1734 17.8832 10.6982 17.5448 10.235 17.2184C9.91819 16.9904 9.61339 16.7816 9.26299 16.7216C9.09259 16.6928 8.91499 16.6784 8.75419 16.6784C8.45419 16.6784 8.21899 16.7264 8.04859 16.76C7.94539 16.7816 7.85179 16.7984 7.78219 16.7984C7.71019 16.7984 7.63339 16.7816 7.59739 16.6664C7.56859 16.568 7.54699 16.4696 7.52539 16.376C7.47499 16.136 7.43659 15.9872 7.33339 15.9704C6.15499 15.7856 5.81659 15.5384 5.73979 15.3632C5.73019 15.3368 5.72299 15.3128 5.72299 15.2864C5.71819 15.2168 5.76619 15.1568 5.83339 15.1496C7.64539 14.8496 8.45899 12.9992 8.49259 12.9176C8.49259 12.9128 8.49259 12.9128 8.49739 12.908C8.60779 12.6848 8.62939 12.488 8.56219 12.3296C8.43739 12.0392 8.03179 11.9048 7.76539 11.8232C7.70059 11.8016 7.63579 11.7848 7.59019 11.7632C7.05499 11.5544 7.00699 11.336 7.02859 11.2232C7.06219 11.0336 7.31659 10.9016 7.52059 10.9016C7.57579 10.9016 7.62859 10.9112 7.66699 10.9328C7.90699 11.0432 8.12539 11.1032 8.31259 11.1032C8.56939 11.1032 8.68459 10.9952 8.69899 10.9784C8.68939 10.8536 8.68699 10.7264 8.67739 10.5968C8.62219 9.73996 8.55739 8.67436 8.82619 8.06716C9.63979 6.24796 11.3606 6.10636 11.8694 6.10636C11.8814 6.10636 12.0926 6.10156 12.0926 6.10156H12.1238C12.6326 6.10156 14.3582 6.24316 15.1718 8.06716C15.4406 8.67436 15.3782 9.74236 15.3206 10.5968L15.3158 10.6352C15.3062 10.7552 15.3038 10.8704 15.2942 10.9832C15.3062 10.9952 15.4094 11.0936 15.6446 11.108C15.8246 11.0984 16.031 11.0432 16.2518 10.9376C16.3166 10.9088 16.3934 10.8992 16.4414 10.8992C16.5182 10.8992 16.595 10.9112 16.6598 10.9424H16.6646C16.8494 11.0072 16.9646 11.1344 16.9694 11.2688C16.9742 11.3936 16.8758 11.5808 16.403 11.7704C16.355 11.7872 16.2926 11.8088 16.2278 11.8304C15.959 11.9168 15.5558 12.044 15.431 12.3368C15.3614 12.4952 15.383 12.692 15.4958 12.9152C15.4958 12.92 15.4958 12.92 15.5006 12.9248C15.5342 13.0016 16.3478 14.8568 18.1598 15.1544C18.2294 15.1664 18.275 15.2264 18.2702 15.2912C18.2702 15.3176 18.2606 15.3416 18.2534 15.368C18.1814 15.5432 17.843 15.7928 16.6598 15.9728C16.5662 15.9848 16.5278 16.1144 16.4678 16.376C16.4462 16.4696 16.4246 16.5632 16.3958 16.664C16.3694 16.7504 16.319 16.7888 16.2278 16.7888H16.2158C16.151 16.7888 16.067 16.7768 15.9494 16.7552C15.7478 16.7168 15.5246 16.6784 15.2438 16.6784C15.0758 16.6784 14.9054 16.6904 14.735 16.7216C14.3798 16.7816 14.0798 16.9904 13.763 17.2184C13.2974 17.5448 12.8174 17.8832 12.0758 17.8832Z" fill="white"/>
</g>
<mask id="mask1_9918_18255" style="mask-type:luminance" maskUnits="userSpaceOnUse" x="5" y="5" width="14" height="14">
<path d="M5.58594 5.97656H18.4187V18.0246H5.58594V5.97656Z" fill="white"/>
</mask>
<g mask="url(#mask1_9918_18255)">
<path d="M12.1173 5.97656H12.0885H11.8653C11.3397 5.97656 9.54452 6.12296 8.70212 8.01896C8.41892 8.65736 8.48852 9.73976 8.53892 10.6086C8.54852 10.7118 8.55092 10.8174 8.55572 10.9206C8.51252 10.947 8.43092 10.9758 8.30852 10.9758C8.14052 10.9758 7.94372 10.9254 7.71812 10.8174C7.65812 10.791 7.58852 10.7742 7.51652 10.7742C7.25492 10.7742 6.94292 10.9446 6.89492 11.2014C6.86132 11.3862 6.94292 11.655 7.53812 11.8902C7.59332 11.9118 7.65812 11.9334 7.72292 11.955C7.96772 12.0318 8.33972 12.1518 8.43812 12.387C8.48852 12.5118 8.46692 12.6702 8.37812 12.8574C8.37812 12.8622 8.37332 12.867 8.37332 12.8694C8.33972 12.9462 7.55492 14.7318 5.81732 15.0198C5.68532 15.0414 5.58692 15.1614 5.59412 15.2982C5.59892 15.3366 5.60612 15.3798 5.62292 15.4182C5.75492 15.723 6.30452 15.9486 7.31012 16.1022C7.34372 16.1502 7.37972 16.3086 7.39892 16.407C7.42052 16.5006 7.44212 16.6038 7.47092 16.707C7.49972 16.8102 7.57892 16.935 7.78292 16.935C7.86452 16.935 7.96292 16.9182 8.07332 16.8918C8.24132 16.8582 8.47172 16.815 8.75492 16.815C8.91332 16.815 9.08132 16.827 9.24212 16.8582C9.56852 16.9134 9.84212 17.1054 10.1589 17.3334C10.6173 17.655 11.1309 18.0222 11.9181 18.0222C11.9397 18.0222 11.9613 18.0222 11.9829 18.0174C12.0093 18.0174 12.0429 18.0222 12.0765 18.0222C12.8637 18.0222 13.3773 17.6574 13.8357 17.3334C14.1573 17.1054 14.4309 16.9134 14.7525 16.8582C14.9205 16.8318 15.0813 16.815 15.2397 16.815C15.5133 16.815 15.7269 16.8486 15.9213 16.887C16.0413 16.9134 16.1397 16.9206 16.2117 16.9206H16.2213H16.2309C16.3797 16.9206 16.4829 16.8438 16.5261 16.6974C16.5549 16.5942 16.5765 16.4958 16.5981 16.4022C16.6197 16.3038 16.6533 16.1454 16.6869 16.0974C17.6877 15.9438 18.2421 15.7158 18.3741 15.4134C18.3909 15.375 18.4005 15.3318 18.4029 15.2934C18.4125 15.1566 18.3141 15.0366 18.1797 15.015C16.4373 14.727 15.6525 12.939 15.6237 12.8646C15.6237 12.8598 15.6189 12.855 15.6189 12.8526C15.5253 12.6654 15.5037 12.507 15.5589 12.3822C15.6573 12.147 16.0293 12.027 16.2741 11.9502C16.3437 11.9286 16.4061 11.907 16.4589 11.8854C16.8909 11.715 17.1093 11.5038 17.1045 11.2614C17.0997 11.0694 16.9509 10.8966 16.7157 10.815C16.6341 10.7814 16.5405 10.7646 16.4493 10.7646C16.3845 10.7646 16.2909 10.7742 16.2045 10.815C15.9981 10.9134 15.8109 10.9638 15.6525 10.9734C15.5445 10.9686 15.4773 10.9446 15.4389 10.9182C15.4437 10.8294 15.4485 10.7382 15.4557 10.6446L15.4605 10.6062C15.5157 9.73736 15.5853 8.65256 15.2973 8.01656C14.4429 6.12056 12.6477 5.97656 12.1173 5.97656ZM12.1173 6.24056C12.6021 6.24056 14.2629 6.37016 15.0453 8.12456C15.3021 8.70296 15.2373 9.75176 15.1821 10.5918C15.1725 10.7238 15.1653 10.8534 15.1605 10.9782L15.1557 11.0286L15.1893 11.067C15.2013 11.0838 15.3381 11.2206 15.6357 11.235H15.6405H15.6453C15.8421 11.2254 16.0653 11.1654 16.3053 11.055C16.3389 11.0382 16.3869 11.0286 16.4373 11.0286C16.4925 11.0286 16.5525 11.0406 16.6053 11.0574L16.6149 11.0622C16.7445 11.1054 16.8285 11.1918 16.8333 11.2686C16.8333 11.3118 16.8045 11.4654 16.3533 11.6406C16.3101 11.6574 16.2501 11.6742 16.1853 11.6958C15.8949 11.7894 15.4533 11.9262 15.3021 12.279C15.2157 12.4758 15.2421 12.7062 15.3717 12.9678C15.4221 13.0926 16.2573 14.967 18.1293 15.2766C18.1293 15.2862 18.1245 15.2934 18.1197 15.3078C18.0909 15.3798 17.8845 15.6414 16.6293 15.8334C16.4325 15.8622 16.3845 16.0854 16.3293 16.3398C16.3077 16.4286 16.2909 16.5246 16.2597 16.6182C16.2501 16.647 16.2501 16.647 16.2165 16.647H16.2045C16.1493 16.647 16.0629 16.635 15.9645 16.6182C15.7845 16.5846 15.5397 16.5414 15.2325 16.5414C15.0573 16.5414 14.8773 16.5582 14.7021 16.5846C14.3157 16.6494 14.0037 16.8726 13.6749 17.103C13.2285 17.415 12.7725 17.7414 12.0693 17.7414C12.0405 17.7414 12.0093 17.7414 11.9805 17.7366H11.9709H11.9613H11.9109C11.2077 17.7366 10.7517 17.4102 10.3053 17.0982C9.97652 16.863 9.66212 16.6446 9.27812 16.5798C9.09812 16.551 8.91812 16.5366 8.74772 16.5366C8.43572 16.5366 8.19092 16.5846 8.01572 16.6182C7.91732 16.6398 7.83092 16.6518 7.77572 16.6518C7.72772 16.6518 7.72772 16.647 7.72052 16.6182C7.69172 16.5246 7.67252 16.4262 7.65092 16.335C7.59572 16.0782 7.54772 15.855 7.35092 15.8262C6.09572 15.6342 5.89412 15.3726 5.86052 15.3006C5.85572 15.2886 5.85092 15.279 5.85092 15.2718C7.72532 14.9646 8.55812 13.0878 8.60852 12.963C8.73812 12.7014 8.75732 12.471 8.67812 12.2742C8.52932 11.9238 8.08772 11.787 7.79492 11.691C7.72532 11.6694 7.67012 11.6526 7.62692 11.6358C7.25012 11.487 7.13012 11.3358 7.14692 11.247C7.16852 11.139 7.34852 11.0334 7.50692 11.0334C7.54052 11.0334 7.57652 11.0382 7.59572 11.0502C7.85252 11.1702 8.09252 11.235 8.29892 11.235C8.62532 11.235 8.76932 11.0862 8.78612 11.067L8.81972 11.0286L8.81492 10.9782C8.80532 10.8534 8.80292 10.7262 8.79332 10.5918C8.74292 9.74936 8.67332 8.70296 8.93012 8.12456C9.71012 6.37256 11.3661 6.24056 11.8557 6.24056H12.0789H12.1173Z" fill="black"/>
</g>
</svg>
