<svg width="25" height="24" viewBox="0 0 25 24" fill="none" xmlns="http://www.w3.org/2000/svg">
<path d="M24.9264 12C24.9264 18.6272 19.5535 24 12.9258 24H12.9033C6.28619 23.9876 0.925781 18.6183 0.925781 12C0.925781 5.3817 6.28619 0.0118279 12.9033 0H12.9258C19.5535 0 24.9264 5.37105 24.9264 12Z" fill="black"/>
<path d="M12.9033 0V24C6.28619 23.9876 0.925781 18.6183 0.925781 12C0.925781 5.3817 6.28619 0.0118279 12.9033 0Z" fill="#0C0C0C"/>
<path d="M19.457 8.67889L19.4422 11.1373C18.9631 11.1315 18.4865 11.0675 18.0229 10.9469C17.3075 10.76 16.6329 10.4426 16.0328 10.0107C16.0328 10.2621 16.0364 10.637 16.0364 11.093C16.0364 11.6997 16.0364 12.0445 16.0328 12.4106C16.0222 14.6721 16.0783 15.1097 15.8796 16.0039C15.8383 16.2196 15.7818 16.432 15.7105 16.6397C15.3285 17.7042 14.4958 18.557 13.6471 19.0106C13.4103 19.1365 13.1617 19.2389 12.9049 19.3163C11.3011 19.8024 9.3737 19.3755 8.37897 18.1927L8.37247 18.1856L8.36478 18.1755C7.51967 17.156 7.33516 15.5663 7.31742 15.1594C7.31742 15.1074 7.31387 15.0565 7.31387 15.0565C7.30085 14.5007 7.3808 13.9466 7.55043 13.4172C7.72193 12.8695 8.28671 11.7264 9.55526 11.0321C10.3464 10.6059 11.2494 10.4331 12.142 10.5371L12.113 13.0251C12.0628 13.012 10.8475 12.724 10.0497 13.552C9.32698 14.3019 9.3737 15.5101 9.88644 16.1943C9.91364 16.231 9.94262 16.2665 9.97278 16.2996C10.2596 16.6196 10.6233 16.7396 10.8687 16.8236C11.1942 16.9308 11.5357 16.9808 11.8783 16.9714C12.2452 16.9657 12.6021 16.8511 12.9037 16.642C13.7376 16.0755 13.85 15.0666 13.8541 15.0092C13.8439 11.7612 13.8342 8.5133 13.8251 5.26536V5.2624L15.3882 5.23461H15.4136L15.6401 5.23047C15.8071 5.83153 16.0902 6.39408 16.4734 6.88638C16.5941 7.04035 16.7245 7.18652 16.8637 7.32401C17.3897 7.83597 18.0216 8.22639 18.7148 8.46777H18.7195C18.96 8.55564 19.2064 8.6262 19.457 8.67889Z" fill="#FD2854"/>
<path d="M18.7488 9.79143H18.7441C17.9023 9.92629 17.0406 9.86085 16.2289 9.60041C15.662 9.41611 15.13 9.13848 14.6546 8.77896C14.9396 10.502 14.9396 12.2602 14.6546 13.9832C14.3169 16.0082 14.1052 17.2773 12.975 18.0893C12.9514 18.1064 12.9271 18.1236 12.9029 18.1396C11.3422 19.1964 9.16169 18.6718 8.36272 18.1745L8.35089 18.1674L8.32842 18.1532C8.06506 17.9787 7.81804 17.7808 7.59036 17.5618C7.18222 17.1659 6.85655 16.693 6.63212 16.1706C6.40769 15.6482 6.28896 15.0864 6.28278 14.5179C6.2676 13.9289 6.36536 13.3425 6.57079 12.7904C6.70386 12.4356 7.19826 11.1735 8.57562 10.4053C9.4576 9.9217 10.4767 9.7492 11.4687 9.91562C11.4648 10.1128 11.461 10.3099 11.4575 10.507V10.5112L11.4344 11.759C11.0027 11.6573 10.5565 11.6324 10.1162 11.6857C9.76137 11.7294 9.41363 11.7702 9.04401 12.0027C8.57063 12.3074 8.23558 12.7855 8.11079 13.3345C8.03181 13.6004 8.01562 13.8809 8.06347 14.1542C8.07767 14.2322 8.18175 14.7745 8.61939 15.1637C8.76664 15.2944 8.82933 15.2997 9.04401 15.5002C9.23325 15.6776 9.28057 15.7627 9.45384 15.91C9.45384 15.91 9.49642 15.9461 9.56621 15.9969C9.57069 16.0008 9.57543 16.0044 9.5804 16.0076C9.67583 16.0774 9.77602 16.1404 9.88024 16.1962C10.3137 16.4233 11.0896 16.4476 11.6586 16.1714C12.4457 15.7888 12.8751 14.9088 12.8733 14.386C12.8638 11.1369 12.8542 7.88792 12.8443 4.63919H12.8987L15.3128 4.625C15.3111 4.8133 15.3372 5.00083 15.3903 5.1815C15.3962 5.20102 15.4021 5.21935 15.4086 5.24064C15.4151 5.26193 15.4192 5.27199 15.4246 5.28677C15.462 5.38505 15.5053 5.48103 15.5541 5.57419L15.5878 5.6422V5.64752C15.5873 5.64905 15.5873 5.65072 15.5878 5.65225L15.5931 5.66349L15.5984 5.67413C15.6016 5.68101 15.6052 5.68772 15.6091 5.69424C15.6126 5.70193 15.6168 5.70962 15.6209 5.71731C15.6434 5.76048 15.6741 5.81725 15.709 5.88112C15.7309 5.92075 15.754 5.96037 15.7776 5.9994L15.8031 6.04139C15.8155 6.06268 15.8285 6.08397 15.8415 6.10467L15.8888 6.17978C16.0727 6.47015 16.3956 6.95924 16.8534 7.32886C17.4968 7.8481 18.2361 7.99477 18.6997 8.03853C18.7027 8.18402 18.7062 8.3295 18.7092 8.47498C18.7265 8.91419 18.7397 9.35301 18.7488 9.79143Z" fill="#24F6FA"/>
<path d="M18.7565 10.4863C17.5379 10.531 16.3414 10.1521 15.3707 9.41412V14.6184C15.3589 14.8177 15.1844 17.0159 13.1985 18.2259C13.1003 18.2851 13.0016 18.3401 12.9028 18.3909C11.0346 19.3442 9.20897 18.5973 9.02859 18.5198C8.84924 18.4612 8.67736 18.3818 8.51644 18.2833C8.46618 18.2519 8.41709 18.2194 8.37037 18.1857L8.32838 18.1544C7.11011 17.2294 7.05984 15.3452 7.05215 15.0673C7.03913 14.5115 7.11908 13.9574 7.28871 13.4279C7.48978 12.7863 8.09005 11.7046 9.29354 11.0428C9.9576 10.6814 10.7039 10.4981 11.4598 10.5106V10.5147C11.45 11.1396 11.4401 11.7647 11.4302 12.39C11.3031 12.3557 10.5236 12.1594 9.76192 12.639C9.28854 12.9437 8.95349 13.4219 8.8287 13.9708C8.75403 14.2372 8.73789 14.5167 8.78139 14.7899C8.84892 15.1273 9.00812 15.4395 9.2415 15.6924C9.3396 15.8054 9.44921 15.9078 9.56854 15.9981C9.57301 16.002 9.57776 16.0056 9.58273 16.0088C9.67643 16.0811 9.77684 16.1442 9.88257 16.1974L9.88612 16.2004C10.0975 16.5195 10.4023 16.7655 10.7589 16.9046C11.1155 17.0437 11.5063 17.0692 11.8779 16.9775C12.0511 16.9413 12.2192 16.8846 12.3788 16.8083C12.5722 16.7164 12.7493 16.5938 12.9034 16.4452C13.5019 15.8698 13.5894 15.0738 13.5936 15.0259L13.5676 5.27436L13.8278 5.26903L15.3908 5.23828H15.4133C15.4192 5.25366 15.4257 5.26903 15.4322 5.28441C15.4683 5.37135 15.5115 5.46774 15.5617 5.57183L15.5954 5.63984V5.64516C15.5949 5.64669 15.5949 5.64836 15.5954 5.64989L15.6008 5.66113L15.6061 5.67177C15.6093 5.67865 15.6128 5.68536 15.6167 5.69188C15.6203 5.69957 15.6244 5.70726 15.6286 5.71495C15.6558 5.76817 15.6877 5.82317 15.7167 5.87876C15.7386 5.91839 15.7616 5.95801 15.7853 5.99704L15.8107 6.03903L15.8492 6.10231L15.8965 6.17742C16.167 6.60051 16.4912 6.98676 16.861 7.3265C17.4007 7.82063 18.0287 8.20865 18.7121 8.47026H18.7168C18.7245 8.90848 18.7322 9.34789 18.7393 9.78611L18.7565 10.4863Z" fill="white"/>
<path opacity="0.17" d="M19.4544 8.67901L19.4396 11.1374C18.9606 11.1316 18.484 11.0676 18.0203 10.947C17.3049 10.7601 16.6303 10.4428 16.0302 10.0108C16.0302 10.2622 16.0338 10.6371 16.0338 11.0931C16.0338 11.6999 16.0338 12.0446 16.0302 12.4107C16.0196 14.6722 16.0758 15.1098 15.8771 16.004C15.8357 16.2197 15.7792 16.4321 15.7079 16.6398C15.3259 17.7043 14.4932 18.5571 13.6445 19.0107C13.4077 19.1366 13.1591 19.239 12.9023 19.3164V4.63919L15.3164 4.625C15.3147 4.8133 15.3408 5.00083 15.3939 5.1815C15.3998 5.20102 15.4057 5.21935 15.4122 5.24064L15.6387 5.2365C15.8057 5.83757 16.0888 6.40012 16.472 6.89241C16.5927 7.04639 16.7231 7.19256 16.8623 7.33004C17.5058 7.84929 18.245 7.99595 18.7087 8.03972C18.7116 8.1852 18.7152 8.33068 18.7181 8.47617C18.9584 8.56118 19.2045 8.62897 19.4544 8.67901Z" fill="black"/>
</svg>
