<svg width="25" height="24" viewBox="0 0 25 24" fill="none" xmlns="http://www.w3.org/2000/svg">
<path d="M12.3555 24C18.9829 24 24.3555 18.6274 24.3555 12C24.3555 5.37258 18.9829 0 12.3555 0C5.72805 0 0.355469 5.37258 0.355469 12C0.355469 18.6274 5.72805 24 12.3555 24Z" fill="#03A9F4"/>
<path d="M20.1275 7.18C19.5428 7.43536 18.9243 7.605 18.2912 7.68368C18.9586 7.28789 19.4576 6.66087 19.6933 5.92158C19.0686 6.29237 18.3851 6.55351 17.6723 6.69368C17.2355 6.22655 16.6682 5.90167 16.0443 5.7613C15.4203 5.62092 14.7686 5.67155 14.1738 5.9066C13.579 6.14165 13.0688 6.55023 12.7094 7.07922C12.3499 7.6082 12.158 8.2331 12.1586 8.87263C12.1563 9.11674 12.1812 9.36034 12.2328 9.59895C10.9648 9.53667 9.7243 9.20761 8.5922 8.63326C7.46009 8.0589 6.46189 7.25218 5.66278 6.26579C5.25203 6.96749 5.12478 7.79956 5.30703 8.59195C5.48928 9.38434 5.96727 10.0772 6.64331 10.5289C6.13871 10.5153 5.6448 10.3805 5.20331 10.1358V10.1705C5.20473 10.906 5.45931 11.6186 5.92427 12.1886C6.38923 12.7585 7.03621 13.1509 7.75646 13.3C7.48389 13.3716 7.20301 13.4067 6.9212 13.4042C6.71828 13.408 6.51555 13.39 6.31646 13.3505C6.52281 13.9831 6.92008 14.5362 7.45363 14.9337C7.98717 15.3313 8.63078 15.5537 9.29594 15.5705C8.16876 16.4516 6.77921 16.9301 5.34857 16.93C5.09366 16.9322 4.83889 16.9174 4.58594 16.8858C6.04468 17.8263 7.74503 18.3232 9.48067 18.3163C15.3465 18.3163 18.5533 13.4579 18.5533 9.24684C18.5533 9.10632 18.5533 8.97053 18.5423 8.83474C19.1668 8.38401 19.704 7.82328 20.1275 7.18Z" fill="white"/>
</svg>
