<svg width="25" height="24" viewBox="0 0 25 24" fill="none" xmlns="http://www.w3.org/2000/svg">
<path d="M12.0703 24C5.44391 24 0.0703125 18.6264 0.0703125 12C0.0703125 5.3736 5.44391 0 12.0703 0C18.6967 0 24.0703 5.3736 24.0703 12C24.0703 18.6264 18.6967 24 12.0703 24Z" fill="#25D366"/>
<path fill-rule="evenodd" clip-rule="evenodd" d="M17.6835 6.41126C16.1955 4.92086 14.2131 4.10006 12.1035 4.09766C7.75714 4.09766 4.21714 7.63526 4.21714 11.9841C4.21714 13.3737 4.57954 14.7321 5.27074 15.9273L4.15234 20.0145L8.33314 18.9177C9.48514 19.5465 10.7811 19.8777 12.1011 19.8777H12.1035C16.4499 19.8777 19.9875 16.3401 19.9899 11.9913C19.9923 9.88406 19.1739 7.90166 17.6835 6.41126ZM12.1059 18.5457H12.1035C10.9275 18.5457 9.77314 18.2289 8.76754 17.6313L8.52754 17.4897L6.04594 18.1401L6.70834 15.7209L6.55234 15.4737C5.89714 14.4297 5.54914 13.2249 5.54914 11.9841C5.55154 8.36966 8.49154 5.42966 12.1083 5.42966C13.8603 5.42966 15.5043 6.11366 16.7427 7.35206C17.9811 8.59046 18.6627 10.2393 18.6603 11.9889C18.6603 15.6057 15.7179 18.5457 12.1059 18.5457ZM15.7011 13.6353C15.5043 13.5369 14.5347 13.0593 14.3547 12.9945C14.1747 12.9297 14.0427 12.8961 13.9107 13.0929C13.7787 13.2897 13.4019 13.7337 13.2867 13.8657C13.1715 13.9977 13.0563 14.0145 12.8595 13.9161C12.6627 13.8177 12.0267 13.6089 11.2755 12.9369C10.6899 12.4137 10.2939 11.7681 10.1787 11.5713C10.0635 11.3745 10.1667 11.2665 10.2651 11.1681C10.3539 11.0793 10.4619 10.9377 10.5603 10.8225C10.6587 10.7073 10.6923 10.6257 10.7571 10.4937C10.8219 10.3617 10.7907 10.2465 10.7403 10.1481C10.6899 10.0497 10.2963 9.08006 10.1331 8.68406C9.97234 8.30006 9.81154 8.35286 9.68914 8.34566C9.57394 8.34086 9.44194 8.33846 9.31234 8.33846C9.18034 8.33846 8.96674 8.38886 8.78674 8.58566C8.60674 8.78246 8.09794 9.26006 8.09794 10.2297C8.09794 11.1993 8.80354 12.1377 8.90194 12.2673C9.00034 12.3993 10.2915 14.3889 12.2691 15.2433C12.7395 15.4473 13.1067 15.5673 13.3923 15.6585C13.8651 15.8097 14.2947 15.7881 14.6331 15.7377C15.0123 15.6801 15.7995 15.2601 15.9627 14.8017C16.1259 14.3409 16.1259 13.9473 16.0779 13.8657C16.0299 13.7841 15.8979 13.7361 15.7011 13.6353Z" fill="white"/>
</svg>
