<svg width="35" height="34" viewBox="0 0 35 34" fill="none" xmlns="http://www.w3.org/2000/svg">
<path d="M17.3574 34C7.97002 34 0.357422 26.3874 0.357422 17C0.357422 7.6126 7.97002 0 17.3574 0C26.7448 0 34.3574 7.6126 34.3574 17C34.3574 26.3874 26.7448 34 17.3574 34Z" fill="#FF0000"/>
<path d="M28.1761 11.5293C27.9177 10.5501 27.1527 9.78175 26.1803 9.51995C24.4191 9.04395 17.3607 9.04395 17.3607 9.04395C17.3607 9.04395 10.2989 9.04395 8.54114 9.51995C7.56874 9.78175 6.80374 10.5501 6.54534 11.5293C6.06934 13.3007 6.06934 16.9999 6.06934 16.9999C6.06934 16.9999 6.06934 20.6991 6.54194 22.4705C6.80034 23.4497 7.56534 24.2181 8.53774 24.4799C10.2989 24.9559 17.3573 24.9559 17.3573 24.9559C17.3573 24.9559 24.4191 24.9559 26.1769 24.4799C27.1493 24.2181 27.9143 23.4497 28.1727 22.4705C28.6453 20.6991 28.6453 16.9999 28.6453 16.9999C28.6453 16.9999 28.6453 13.3007 28.1761 11.5293ZM15.0487 20.3557V13.6441L20.9477 16.9999L15.0487 20.3557Z" fill="white"/>
</svg>
