<svg width="22" height="23" viewBox="0 0 22 23" fill="none" xmlns="http://www.w3.org/2000/svg">
<path d="M3.16016 0.000248755C3.71767 -0.00669191 4.26755 0.131712 4.75488 0.402593L19.8057 8.76587C20.221 8.99687 20.5667 9.33477 20.8076 9.74439C21.0486 10.1541 21.1757 10.6206 21.1758 11.096C21.1758 11.5714 21.0486 12.0387 20.8076 12.4485C20.5666 12.858 20.2209 13.1961 19.8057 13.427L4.75488 21.7893C4.26755 22.0602 3.71767 22.1996 3.16016 22.1926C2.60269 22.1857 2.05658 22.0331 1.57617 21.7502C1.09573 21.4673 0.697367 21.0635 0.4209 20.5793C0.144451 20.0952 -0.00052754 19.547 1.4424e-06 18.9895V3.2024C-0.000445322 2.64516 0.144662 2.09748 0.4209 1.61353C0.697349 1.12937 1.09578 0.725558 1.57617 0.442632C2.05661 0.159705 2.60265 0.00719133 3.16016 0.000248755Z" fill="#170B03"/>
</svg>
