<svg width="22" height="23" viewBox="0 0 22 23" fill="none" xmlns="http://www.w3.org/2000/svg">
<path d="M3.16016 0.000248755C3.71767 -0.00669191 4.26755 0.131712 4.75488 0.402593L19.8057 8.7649C20.2211 8.99591 20.5666 9.33463 20.8076 9.74439C21.0486 10.1541 21.1758 10.6206 21.1758 11.096C21.1758 11.5713 21.0486 12.0378 20.8076 12.4475C20.5666 12.8573 20.2211 13.196 19.8057 13.427L4.75488 21.7893C4.26755 22.0602 3.71767 22.1986 3.16016 22.1917C2.60265 22.1847 2.05661 22.0322 1.57617 21.7493C1.09587 21.4664 0.697325 21.0634 0.4209 20.5793C0.144469 20.0952 -0.000489319 19.547 1.24096e-06 18.9895V3.2024C-0.000489069 2.64492 0.144469 2.09668 0.4209 1.61255C0.697325 1.1285 1.09587 0.725527 1.57617 0.442632C2.05661 0.159705 2.60265 0.00719169 3.16016 0.000248755Z" fill="#D9D9D9"/>
</svg>
